<?xml version="1.0" encoding="utf-8"?>
<!-- Generator: Adobe Illustrator 16.0.0, SVG Export Plug-In . SVG Version: 6.00 Build 0)  -->
<!DOCTYPE svg PUBLIC "-//W3C//DTD SVG 1.1//EN" "http://www.w3.org/Graphics/SVG/1.1/DTD/svg11.dtd">
<svg version="1.1" id="Layer_1" xmlns="http://www.w3.org/2000/svg" xmlns:xlink="http://www.w3.org/1999/xlink" x="0px" y="0px"
	 width="24px" height="24px" viewBox="0 0 24 24" enable-background="new 0 0 24 24" xml:space="preserve">
<g>
	<g>
		<path d="M22.1,15H1.4c-0.3,0-0.5,0.2-0.5,0.4v6.7c0,0.2,0.2,0.4,0.5,0.4h3.3c0.2,0,0.3-0.1,0.4-0.3l0.8-2h11.8l0.8,2
			c0.1,0.2,0.2,0.3,0.4,0.3h3.3c0.3,0,0.5-0.2,0.5-0.4v-6.7C22.6,15.2,22.4,15,22.1,15z M12.2,18.1h-1c-0.2,0-0.4-0.2-0.4-0.4
			c0-0.3,0.2-0.5,0.4-0.5h1c0.2,0,0.4,0.2,0.4,0.5C12.7,17.9,12.5,18.1,12.2,18.1z"/>
		<g>
			<g>
				<path d="M20.8,12.3H2.6c-0.3,0-0.5-0.2-0.5-0.5V1.6c0-0.3,0.2-0.5,0.5-0.5h18.2c0.3,0,0.5,0.2,0.5,0.5v10.3
					C21.3,12.1,21.1,12.3,20.8,12.3z"/>
			</g>
		</g>
	</g>
	<g>
		<rect x="11.3" y="12.4" width="0.9" height="2"/>
	</g>
	<g>
		<rect x="8.1" y="13.5" width="7.3" height="0.9"/>
	</g>
</g>
</svg>
