<?xml version="1.0" encoding="UTF-8" standalone="no"?>
<!-- Created with Inkscape (http://www.inkscape.org/) -->

<svg
   xmlns:dc="http://purl.org/dc/elements/1.1/"
   xmlns:cc="http://creativecommons.org/ns#"
   xmlns:rdf="http://www.w3.org/1999/02/22-rdf-syntax-ns#"
   xmlns:svg="http://www.w3.org/2000/svg"
   xmlns="http://www.w3.org/2000/svg"
   xmlns:sodipodi="http://sodipodi.sourceforge.net/DTD/sodipodi-0.dtd"
   xmlns:inkscape="http://www.inkscape.org/namespaces/inkscape"
   width="20"
   height="20"
   viewBox="0 0 5.2916665 5.2916668"
   version="1.1"
   id="svg8832"
   inkscape:version="0.92.3 (2405546, 2018-03-11)"
   sodipodi:docname="closet.svg">
  <defs
     id="defs8826" />
  <sodipodi:namedview
     id="base"
     pagecolor="#ffffff"
     bordercolor="#666666"
     borderopacity="1.0"
     inkscape:pageopacity="0.0"
     inkscape:pageshadow="2"
     inkscape:zoom="11.313708"
     inkscape:cx="27.497298"
     inkscape:cy="3.4422137"
     inkscape:document-units="mm"
     inkscape:current-layer="layer1"
     showgrid="false"
     inkscape:pagecheckerboard="true"
     units="px"
     inkscape:window-width="1366"
     inkscape:window-height="745"
     inkscape:window-x="-8"
     inkscape:window-y="-8"
     inkscape:window-maximized="1" />
  <metadata
     id="metadata8829">
    <rdf:RDF>
      <cc:Work
         rdf:about="">
        <dc:format>image/svg+xml</dc:format>
        <dc:type
           rdf:resource="http://purl.org/dc/dcmitype/StillImage" />
        <dc:title></dc:title>
      </cc:Work>
    </rdf:RDF>
  </metadata>
  <g
     inkscape:label="Layer 1"
     inkscape:groupmode="layer"
     id="layer1"
     transform="translate(0,-291.70832)">
    <g
       transform="matrix(0.00178446,0,0,0.01062043,-23.29468,317.99324)"
       id="g915">
      <g
         id="g4705"
         transform="matrix(1.6770735,0,0,1.6557515,356.5158,135.97963)"
         style="fill:#ff6600">
        <path
           id="path4691"
           d="m 15.5,20.8 c -1.7,0 -3.1,-1.4 -3.1,-3.1 V 5.3 h -0.9 v 12.5 c 0,1.7 -1.4,3.1 -3.1,3.1 -2.1,0 -2.3,-2.1 -2.3,-3.1 H 5.2 c 0,2.5 1.2,4 3.3,4 1.6,0 2.9,-0.9 3.5,-2.2 0.7,1.3 2,2.2 3.5,2.2 2,0 3.3,-1.5 3.3,-4 h -0.9 c -0.1,0.8 -0.3,3 -2.4,3 z"
           inkscape:connector-curvature="0"
           style="fill:#ff6600" />
        <rect
           id="rect4693"
           height="0.89999998"
           width="4.5"
           y="3.8"
           x="9.6999998"
           style="fill:#ff6600" />
        <rect
           id="rect4695"
           height="0.89999998"
           width="6.3000002"
           y="2.4000001"
           x="8.8000002"
           style="fill:#ff6600" />
        <path
           id="path4697"
           d="m 10,17.1 c 0,-2.4 -2,-4.4 -4.4,-4.4 -2.4,0 -4.4,2 -4.4,4.4 0,0.3 0.2,0.5 0.4,0.5 H 9.5 C 9.8,17.5 10,17.3 10,17.1 Z"
           inkscape:connector-curvature="0"
           style="fill:#ff6600" />
        <path
           id="path4699"
           d="m 18.3,12.7 c -2.4,0 -4.4,2 -4.4,4.4 0,0.3 0.2,0.5 0.4,0.5 h 7.9 c 0.2,0 0.5,-0.2 0.5,-0.5 0,-2.5 -2,-4.4 -4.4,-4.4 z"
           inkscape:connector-curvature="0"
           style="fill:#ff6600" />
        <rect
           id="rect4701"
           height="1.4"
           width="0.89999998"
           y="10.9"
           x="5.1999998"
           style="fill:#ff6600" />
        <rect
           id="rect4703"
           height="1.4"
           width="0.89999998"
           y="10.9"
           x="17.799999"
           style="fill:#ff6600" />
      </g>
      <ellipse
         style="fill:none;fill-opacity:1;stroke:#ffffff;stroke-width:1.34399998;stroke-miterlimit:4;stroke-dasharray:none;stroke-opacity:1"
         id="ellipse4769"
         cx="376.27875"
         cy="155.38496"
         rx="26.636469"
         ry="24.249859"
         inkscape:export-filename="C:\Users\StudyLab360\Desktop\testsss\wardrobe-icon2.png"
         inkscape:export-xdpi="96"
         inkscape:export-ydpi="96" />
    </g>
    <g
       transform="matrix(0.10190691,0,0,0.10074939,-6.0510723,287.7205)"
       id="g960">
      <g
         id="g4689"
         transform="matrix(1.4386863,0,0,1.6537307,68.224248,47.418673)"
         style="fill:#ff6600">
        <path
           id="path4677"
           d="M 17.9,6.3 H 13.5 V 18 h 4.4 z m -2,6.3 h -0.2 c -0.2,0 -0.5,-0.2 -0.5,-0.5 0,-0.3 0.2,-0.5 0.5,-0.5 h 0.2 c 0.3,0 0.5,0.2 0.5,0.5 0,0.3 -0.3,0.5 -0.5,0.5 z"
           inkscape:connector-curvature="0"
           style="fill:#ff6600" />
        <path
           id="path4679"
           d="M 10.8,6.3 H 6.5 V 18 h 4.4 V 6.3 Z m -2,6.3 H 8.5 c -0.2,0 -0.4,-0.2 -0.4,-0.5 0,-0.3 0.2,-0.5 0.4,-0.5 h 0.3 c 0.2,0 0.5,0.2 0.5,0.5 0,0.3 -0.3,0.5 -0.5,0.5 z"
           inkscape:connector-curvature="0"
           style="fill:#ff6600" />
        <rect
           id="rect4681"
           height="0.80000001"
           width="1"
           y="20.799999"
           x="17.799999"
           style="fill:#ff6600" />
        <rect
           id="rect4683"
           height="0.80000001"
           width="0.89999998"
           y="20.799999"
           x="5.5999999"
           style="fill:#ff6600" />
        <path
           id="path4685"
           d="M 4.5,19.9 H 5.1 7 17.4 19.3 19.9 V 4.4 H 4.5 Z m 8.2,-14 c 0,-0.3 0.2,-0.5 0.5,-0.5 h 5.3 c 0.3,0 0.5,0.2 0.5,0.5 V 18.5 C 19,18.8 18.8,19 18.5,19 H 13.2 C 13,19 12.7,18.8 12.7,18.5 Z m -7.1,0 C 5.6,5.6 5.8,5.4 6.1,5.4 h 5.3 c 0.2,0 0.5,0.2 0.5,0.5 v 12.6 c 0,0.3 -0.2,0.5 -0.5,0.5 H 6 C 5.7,19 5.5,18.8 5.5,18.5 V 5.9 Z"
           inkscape:connector-curvature="0"
           style="fill:#ff6600" />
        <polygon
           id="polygon4687"
           points="2.4,2.3 2.4,3.5 4.1,3.5 20.3,3.5 22.1,3.5 22.1,2.3 "
           style="fill:#ff6600" />
      </g>
      <ellipse
         style="fill:none;fill-opacity:1;stroke:#ffffff;stroke-width:1.34399998;stroke-miterlimit:4;stroke-dasharray:none;stroke-opacity:1"
         id="ellipse4765"
         cx="85.341667"
         cy="65.843102"
         rx="25.16861"
         ry="24.280327"
         inkscape:export-filename="C:\Users\StudyLab360\Desktop\testsss\wardrobe-icon2.png"
         inkscape:export-xdpi="96"
         inkscape:export-ydpi="96" />
    </g>
  </g>
</svg>
