<?xml version="1.0" encoding="UTF-8" standalone="no"?>
<!-- Created with Inkscape (http://www.inkscape.org/) -->

<svg
   xmlns:dc="http://purl.org/dc/elements/1.1/"
   xmlns:cc="http://creativecommons.org/ns#"
   xmlns:rdf="http://www.w3.org/1999/02/22-rdf-syntax-ns#"
   xmlns:svg="http://www.w3.org/2000/svg"
   xmlns="http://www.w3.org/2000/svg"
   xmlns:sodipodi="http://sodipodi.sourceforge.net/DTD/sodipodi-0.dtd"
   xmlns:inkscape="http://www.inkscape.org/namespaces/inkscape"
   width="20"
   height="20"
   viewBox="0 0 5.2916665 5.2916668"
   version="1.1"
   id="svg8832"
   inkscape:version="0.92.3 (2405546, 2018-03-11)"
   sodipodi:docname="couch.svg">
  <defs
     id="defs8826" />
  <sodipodi:namedview
     id="base"
     pagecolor="#ffffff"
     bordercolor="#666666"
     borderopacity="1.0"
     inkscape:pageopacity="0.0"
     inkscape:pageshadow="2"
     inkscape:zoom="11.313708"
     inkscape:cx="13.743552"
     inkscape:cy="3.312249"
     inkscape:document-units="mm"
     inkscape:current-layer="layer1"
     showgrid="false"
     inkscape:pagecheckerboard="true"
     units="px"
     inkscape:window-width="1366"
     inkscape:window-height="745"
     inkscape:window-x="-8"
     inkscape:window-y="-8"
     inkscape:window-maximized="1" />
  <metadata
     id="metadata8829">
    <rdf:RDF>
      <cc:Work
         rdf:about="">
        <dc:format>image/svg+xml</dc:format>
        <dc:type
           rdf:resource="http://purl.org/dc/dcmitype/StillImage" />
        <dc:title></dc:title>
      </cc:Work>
    </rdf:RDF>
  </metadata>
  <g
     inkscape:label="Layer 1"
     inkscape:groupmode="layer"
     id="layer1"
     transform="translate(0,-291.70832)">
    <g
       transform="matrix(0.09444039,0,0,0.10565566,-27.41281,287.20774)"
       id="g904">
      <path
         id="path4707"
         d="m 330.09892,56.618966 c 0.59151,0 1.18307,0.560967 1.18307,1.122031 v 3.179409 6.919883 c 0,0.748061 -0.59151,1.122103 -1.18307,1.122103 H 319.64815 V 56.618966 Z m -24.0564,1.122031 c 0,-0.560991 0.59149,-1.122031 1.18308,-1.122031 h 10.45073 v 12.530472 h -10.25357 c -0.59151,0 -1.1831,-0.561015 -1.1831,-1.122103 v -7.106928 -3.179409 z m -2.95781,20.946596 h -1.77463 l 0.78872,-1.496195 h 2.36625 z m 31.35225,0 -1.57747,-1.496195 h 2.3662 l 0.78877,1.496195 z m 3.74647,-4.114539 c 0,0.561112 -0.59157,1.122151 -1.18315,1.122151 h -1.38019 -5.12682 -23.66209 -5.12675 -1.38027 c -0.59153,0 -1.1831,-0.560991 -1.1831,-1.122151 V 62.977712 c 0,-0.561112 0.59149,-1.122151 1.1831,-1.122151 h 3.94368 v 6.171773 c 0,1.683191 1.38028,2.805295 2.95776,2.805295 h 22.67608 c 1.57752,0 2.95781,-1.309197 2.95781,-2.805295 v -6.171773 h 3.94367 c 0.59152,0 1.18313,0.561039 1.18313,1.122151 v 11.595342 z"
         inkscape:connector-curvature="0"
         style="fill:#ff6600;stroke-width:1.92036259" />
      <ellipse
         style="fill:none;fill-opacity:1;stroke:#ffffff;stroke-width:1.34399998;stroke-miterlimit:4;stroke-dasharray:none;stroke-opacity:1"
         id="ellipse4778"
         cx="318.28165"
         cy="67.63868"
         rx="26.636469"
         ry="24.249859"
         inkscape:export-filename="C:\Users\StudyLab360\Desktop\testsss\wardrobe-icon2.png"
         inkscape:export-xdpi="96"
         inkscape:export-ydpi="96" />
    </g>
  </g>
</svg>
