<?xml version="1.0" encoding="UTF-8" standalone="no"?>
<!-- Created with Inkscape (http://www.inkscape.org/) -->

<svg
   xmlns:dc="http://purl.org/dc/elements/1.1/"
   xmlns:cc="http://creativecommons.org/ns#"
   xmlns:rdf="http://www.w3.org/1999/02/22-rdf-syntax-ns#"
   xmlns:svg="http://www.w3.org/2000/svg"
   xmlns="http://www.w3.org/2000/svg"
   xmlns:sodipodi="http://sodipodi.sourceforge.net/DTD/sodipodi-0.dtd"
   xmlns:inkscape="http://www.inkscape.org/namespaces/inkscape"
   width="100"
   height="100"
   viewBox="0 0 26.458332 26.458333"
   version="1.1"
   id="svg8832"
   inkscape:version="0.92.3 (2405546, 2018-03-11)"
   sodipodi:docname="curtain.svg">
  <defs
     id="defs8826" />
  <sodipodi:namedview
     id="base"
     pagecolor="#ffffff"
     bordercolor="#666666"
     borderopacity="1.0"
     inkscape:pageopacity="0.0"
     inkscape:pageshadow="2"
     inkscape:zoom="2.8"
     inkscape:cx="58.45315"
     inkscape:cy="61.491033"
     inkscape:document-units="px"
     inkscape:current-layer="layer1"
     showgrid="false"
     inkscape:pagecheckerboard="true"
     units="px"
     inkscape:window-width="1366"
     inkscape:window-height="745"
     inkscape:window-x="-8"
     inkscape:window-y="-8"
     inkscape:window-maximized="1"
     width="100mm" />
  <metadata
     id="metadata8829">
    <rdf:RDF>
      <cc:Work
         rdf:about="">
        <dc:format>image/svg+xml</dc:format>
        <dc:type
           rdf:resource="http://purl.org/dc/dcmitype/StillImage" />
        <dc:title></dc:title>
      </cc:Work>
    </rdf:RDF>
  </metadata>
  <g
     inkscape:label="Layer 1"
     inkscape:groupmode="layer"
     id="layer1"
     transform="translate(0,-270.54166)">
    <g
       id="g900"
       transform="matrix(0.47980398,0,0,0.5253289,-84.689246,260.74296)">
      <g
         id="g4729"
         transform="matrix(1.6386432,0,0,1.4817315,185.26321,26.187351)"
         style="fill:#ff6600">
        <path
           id="path4709"
           d="m 1.7,21.9 v -9.1 c 1.1,0.5 2.2,3.1 2.2,9.1 z m 3.2,0 c 0,-4.3 -0.6,-7.3 -1.6,-8.9 2.5,1 4,4.1 4.1,8.9 z"
           inkscape:connector-curvature="0"
           style="fill:#ff6600" />
        <path
           id="path4711"
           d="M 3.4,7.3 C 4.2,6.1 4.8,4.3 4.9,2.1 H 7.3 C 7.1,4.5 5.5,6.4 3.4,7.3 Z M 1.7,2.1 H 4 C 3.9,5 2.8,7.1 1.7,7.6 Z"
           inkscape:connector-curvature="0"
           style="fill:#ff6600" />
        <path
           id="path4713"
           d="m 2.3,9.9 h 1 C 3.6,9.9 3.8,9.7 3.8,9.4 3.8,9.2 3.6,9 3.3,9 H 2.3 2.2 1.7 v 0.9 h 0.5 z"
           inkscape:connector-curvature="0"
           style="fill:#ff6600" />
        <path
           id="path4715"
           d="m 2.3,11.3 h 1 c 0.3,0 0.5,-0.2 0.5,-0.4 0,-0.3 -0.2,-0.5 -0.5,-0.5 H 2.3 2.2 1.7 v 0.9 h 0.5 z"
           inkscape:connector-curvature="0"
           style="fill:#ff6600" />
        <path
           id="path4717"
           d="M 21.5,2.1 V 7.6 C 20.4,7.1 19.4,5.1 19.3,2.1 Z m -5.6,0 h 2.4 c 0.1,2.1 0.6,4 1.5,5.2 C 17.7,6.4 16.1,4.5 15.9,2.1 Z"
           inkscape:connector-curvature="0"
           style="fill:#ff6600" />
        <path
           id="path4719"
           d="m 20,13.1 c -1,1.6 -1.6,4.6 -1.6,8.9 H 16 c 0,-4.8 1.5,-7.9 4,-8.9 z m 1.5,8.8 h -2.2 c 0.1,-6 1.1,-8.6 2.2,-9.1 z"
           inkscape:connector-curvature="0"
           style="fill:#ff6600" />
        <path
           id="path4721"
           d="m 20.9,9 h -1 c -0.3,0 -0.5,0.2 -0.5,0.4 0,0.3 0.2,0.5 0.5,0.5 h 1 0.4 0.5 V 9 h -0.5 z"
           inkscape:connector-curvature="0"
           style="fill:#ff6600" />
        <path
           id="path4723"
           d="m 20.9,10.4 h -1 c -0.3,0 -0.5,0.2 -0.5,0.5 0,0.2 0.2,0.4 0.5,0.4 h 1 0.4 0.5 v -0.9 h -0.5 z"
           inkscape:connector-curvature="0"
           style="fill:#ff6600" />
        <path
           id="path4725"
           d="m 11.6,11.8 c -0.9,0 -1.6,0.7 -1.6,1.6 0,0.9 0.7,1.6 1.6,1.6 0.9,0 1.6,-0.7 1.6,-1.6 0.1,-0.9 -0.7,-1.6 -1.6,-1.6 z"
           inkscape:connector-curvature="0"
           style="fill:#ff6600" />
        <path
           id="path4727"
           d="M 9.7,2.1 V 3 h 1.4 v 7.5 c 0,0.3 0.2,0.5 0.5,0.5 0.2,0 0.4,-0.2 0.4,-0.5 V 3 h 1.4 V 2.1 Z"
           inkscape:connector-curvature="0"
           style="fill:#ff6600" />
      </g>
      <ellipse
         style="fill:none;fill-opacity:1;stroke:#ffffff;stroke-width:1.34399998;stroke-miterlimit:4;stroke-dasharray:none;stroke-opacity:1"
         id="ellipse4763"
         cx="204.08003"
         cy="43.83514"
         rx="26.636469"
         ry="24.249859"
         inkscape:export-filename="C:\Users\StudyLab360\Desktop\testsss\wardrobe-icon2.png"
         inkscape:export-xdpi="96"
         inkscape:export-ydpi="96" />
    </g>
  </g>
</svg>
