<?xml version="1.0" encoding="UTF-8" standalone="no"?>
<svg
   xmlns:dc="http://purl.org/dc/elements/1.1/"
   xmlns:cc="http://creativecommons.org/ns#"
   xmlns:rdf="http://www.w3.org/1999/02/22-rdf-syntax-ns#"
   xmlns:svg="http://www.w3.org/2000/svg"
   xmlns="http://www.w3.org/2000/svg"
   xmlns:sodipodi="http://sodipodi.sourceforge.net/DTD/sodipodi-0.dtd"
   xmlns:inkscape="http://www.inkscape.org/namespaces/inkscape"
   viewBox="0 0 283.5 11.517143"
   preserveAspectRatio="none"
   version="1.1"
   id="svg20"
   sodipodi:docname="curvySVG.svg"
   inkscape:version="0.92.3 (2405546, 2018-03-11)"
   width="1400"
   height="145">
  <metadata
     id="metadata26">
    <rdf:RDF>
      <cc:Work
         rdf:about="">
        <dc:format>image/svg+xml</dc:format>
        <dc:type
           rdf:resource="http://purl.org/dc/dcmitype/StillImage" />
        <dc:title></dc:title>
      </cc:Work>
    </rdf:RDF>
  </metadata>
  <defs
     id="defs24" />
  <sodipodi:namedview
     pagecolor="#ffffff"
     bordercolor="#666666"
     borderopacity="1"
     objecttolerance="10"
     gridtolerance="10"
     guidetolerance="10"
     inkscape:pageopacity="0"
     inkscape:pageshadow="2"
     inkscape:window-width="1366"
     inkscape:window-height="745"
     id="namedview22"
     showgrid="false"
     inkscape:zoom="0.50088183"
     inkscape:cx="601.99004"
     inkscape:cy="377.76662"
     inkscape:window-x="-8"
     inkscape:window-y="-8"
     inkscape:window-maximized="1"
     inkscape:current-layer="svg20"
     units="px" />
  <path
     class="elementor-shape-fill"
     d="m 283.35526,4.2076272 c 0,0 -7.31041,1.9641479 -14.01997,2.1011815 -6.80969,0.137034 -12.61797,0 -20.9298,-0.685168 C 237.08937,4.7100835 215.25829,1.0101764 203.64174,3.0200024 192.0252,5.0298288 191.52449,5.1211843 185.61607,6.4001642 179.00666,7.8618564 165.58755,10.78524 148.96388,10.648207 131.23864,10.511172 99.092863,3.0656804 85.874037,3.4311033 84.47204,3.4767811 79.264625,3.7965263 75.359063,4.3446603 71.553644,4.8927952 65.945658,6.0804196 58.33482,6.4915193 55.130257,6.6742319 50.022984,6.9939763 44.11457,6.9026208 42.612431,6.8569424 37.805586,6.7199103 32.097457,6.1717751 26.389329,5.6236407 21.081771,4.7557616 16.274926,4.481694 5.9602377,3.9792376 -0.54903169,4.7100835 -0.54903169,4.7100835 V -0.22312593 H 283.35526 Z M 260.62289,4.938473 c -0.701,-0.456779 -2.00286,-0.1827114 -4.30614,-0.1827114 -2.30328,0 -6.1087,-0.5481345 -5.80827,-0.5024568 0.30043,0.045678 3.10442,0.6851682 6.00856,0.8678795 3.00428,0.2283895 4.7067,0.2740672 4.10585,-0.1827113 z M 242.19665,3.7051704 c 0,0 -2.40343,-0.091356 -5.60799,-0.4111008 -3.20456,-0.3654229 -10.31469,-1.2789801 -15.12153,-1.5987253 -8.2117,-0.5024566 -15.82253,0 -15.12154,0.045678 0.80114,0.045678 9.61369,-0.2740671 17.6251,0.5024566 3.30471,0.3197449 9.31326,1.004913 12.41768,1.2333023 3.30471,0.2740672 5.80828,0.2283893 5.80828,0.2283892 z m -57.28157,-0.045678 c 1.70242,-0.319745 -13.31897,2.1468595 -18.52639,2.7863501 -2.10299,0.2740677 -6.20884,0.7308454 -10.01426,0.9135568 -3.90556,0.1827121 -8.91269,0.1827121 -8.81255,0.2283885 0,0.091358 5.80827,0.3654236 11.21598,0 5.4077,-0.3654228 5.20741,-0.5024565 7.61083,-0.7308456 3.80542,-0.3654232 16.82396,-2.8777049 18.52639,-3.1974498 z M 198.8349,2.9286467 c 0.20028,0 -0.80114,-0.1827115 -4.80685,0.5024566 -4.0057,0.685168 -6.70955,1.5987256 -6.90984,1.6900811 -0.20028,0.045678 3.50499,-0.8222013 6.60941,-1.3703361 3.00428,-0.5481344 5.00714,-0.8222016 5.10728,-0.8222016 z m 84.01964,-0.4111008 c -0.10014,0.045678 -1.90271,0.5024565 -4.80684,1.1419467 -2.90414,0.6394905 -6.90984,1.2789804 -6.70956,1.2333026 0.20029,0 3.505,-0.2740672 7.41056,-1.1419469 3.90556,-0.8678794 4.20599,-1.2789803 4.10584,-1.2333024 z M 30.795604,5.0755067 c 0.100142,-0.091356 -1.90271,-0.091356 -4.506418,-0.5481345 -2.603707,-0.4567788 -5.4077,-0.7308459 -7.811123,-0.9135574 -4.005704,-0.365423 -11.7166846,0.045678 -11.3161142,0.091356 0.3004279,0.045678 8.2116932,-0.1370335 12.5178252,0.319745 2.203138,0.2283894 2.403423,0.2283894 5.708129,0.7308462 3.304706,0.5024564 5.307558,0.4567785 5.407701,0.3197447 z M 72.55507,3.9792376 c 0.400571,-0.045678 3.504991,-0.7308458 8.411979,-1.1876245 4.906988,-0.5024564 8.912692,-0.2283894 8.912692,-0.3654228 0,-0.1370336 -1.001426,-0.4111008 -6.208842,-0.1370336 C 78.463484,2.5632237 72.1545,4.0249154 72.55507,3.9792376 Z M 71.153074,2.8372911 c 0.200285,0.045678 3.404848,-0.5938123 5.708128,-0.7765238 2.30328,-0.1370336 1.90271,-0.2283894 1.90271,-0.2740673 0,-0.045678 -1.101569,-0.091356 -2.703851,0.091356 -1.702424,0.2283893 -5.107273,0.9135571 -4.906987,0.9592351 z M 93.184447,1.7867 c 0.100142,0.091356 3.504993,0.3654232 5.607988,0.8222018 2.102995,0.4567786 1.802565,0.2740671 1.902705,0.2283893 C 100.79529,2.7916131 99.894003,2.471868 98.291722,2.2434788 96.68944,1.9694116 93.084304,1.6953443 93.184447,1.7867 Z M 64.944232,4.8471171 c -0.100143,0.1370336 0.300428,0.2283896 1.90271,-0.091356 1.602281,-0.3197458 2.603707,-0.5938125 2.203137,-0.5481344 -0.400571,0.045678 -0.901284,0.182711 -2.503565,0.3654231 -1.702425,0.1827113 -1.502139,0.1370332 -1.602282,0.2740673 z M 34.000167,5.4409293 c -0.200285,0 2.102995,0.3654227 3.304706,0.4111005 1.201711,0.045678 2.002852,0.045678 2.002852,-0.091356 0,-0.1370336 -0.100143,-0.2283895 -1.602282,-0.1827117 -1.602281,0.045678 -3.504991,-0.1370333 -3.705276,-0.1370328 z M 151.86802,9.4149029 c -0.10015,0.04568 -2.40343,-0.1370336 -7.5107,-0.1370336 -5.00713,0 -13.61939,-1.0962692 -17.22453,-1.5987235 -3.60513,-0.5024576 10.01426,1.7814356 16.52353,1.8727913 6.50927,0.091355 8.31184,-0.1827121 8.2117,-0.1370342 z"
     id="path2"
     style="fill:#221e86;fill-opacity:1;stroke-width:0.67633575"
     inkscape:connector-curvature="0" />
  <path
     class="elementor-shape-fill"
     d="m 269.55009,7.0520182 c -0.1,-0.044347 -4.6,0.1330416 -7.2,0 -7.3,-0.3104285 -17,-1.4191058 -16.6,-1.2860642 0.4,0.1330411 13.7,1.3747577 17,1.4634513 4.9,0.1773899 6.9,-0.1773871 6.8,-0.1773871 z"
     id="path4"
     style="fill:#0f056c;fill-opacity:1;stroke-width:0.66593581"
     inkscape:connector-curvature="0" />
  <path
     class="elementor-shape-fill"
     d="m 226.85097,3.7692224 c -0.2,-0.044347 -4.5,-0.4434703 -9.5,-0.5321645 -5,-0.088694 -12.7,0.2660823 -12.3,0.2217352 0.3,-0.044347 5.9,-0.7982467 13.3,-0.5321645 7.4,0.2660823 8.7,0.8869411 8.5,0.8425938 z"
     id="path6"
     style="fill:#11056c;fill-opacity:1;stroke-width:0.66593581"
     inkscape:connector-curvature="0" />
  <path
     class="elementor-shape-fill"
     d="m 203.95097,4.9236383 c -0.1,-0.044347 2,-0.4434705 3.2,-0.4878175 1.2,-0.044347 2,0 2,0.1330412 0,0.1330413 -0.1,0.2217356 -1.6,0.1773882 -1.7,-0.044347 -3.5,0.2217355 -3.6,0.1773881 z"
     id="path8"
     style="fill:#11056c;fill-opacity:1;stroke-width:0.66593581"
     inkscape:connector-curvature="0" />
  <path
     class="elementor-shape-fill"
     d="m 200.45097,4.2124145 c 0,-0.044347 -4.4,0.5321644 -6.3,0.9756353 -1.9,0.3991228 -6.2,1.3747586 -6.1,1.3747586 0.1,0.044346 4.2,-0.7095534 6.3,-1.1530239 2.1,-0.4434701 6.1,-1.1530232 6.1,-1.19737 z"
     id="path10"
     style="fill:#11056c;fill-opacity:1;stroke-width:0.66593581"
     inkscape:connector-curvature="0" />
  <path
     class="elementor-shape-fill"
     d="m 153.95097,11.015651 c -0.1,-0.04435 -4.6,0.133042 -7.2,0 -7.3,-0.31043 -17,-1.4191051 -16.6,-1.2860645 0.4,0.133042 13.7,1.3747585 17,1.4634515 4.9,0.17739 6.9,-0.13304 6.8,-0.177387 z"
     id="path12"
     style="fill:#11056c;fill-opacity:1;stroke-width:0.66593581"
     inkscape:connector-curvature="0" />
  <path
     class="elementor-shape-fill"
     d="m 80.086911,4.7441545 c 0.2,0.044347 2,-0.3547767 4.3,-0.4878179 2.3,-0.088694 2.1,-0.1330416 2.1,-0.2217357 0,-0.044347 -1.8,-0.1773891 -3.4,0 -1.6,0.2217357 -3.2,0.6652067 -3,0.7095536 z"
     id="path16"
     style="fill:#11056c;fill-opacity:1;stroke-width:0.66593581"
     inkscape:connector-curvature="0" />
  <path
     class="elementor-shape-fill"
     d="M 65.577983,6.2249443 C 65.329897,6.1984842 62.373295,6.7590698 59.775458,6.8931456 52.719887,7.3204491 40.715277,7.3271767 41.540118,7.3972734 42.364961,7.4673673 57.773315,7.233761 60.767789,6.9989808 65.386706,6.687192 65.826064,6.2514025 65.577983,6.2249443 Z"
     id="path12-7"
     style="fill:#11056c;fill-opacity:1;stroke-width:0.66593581"
     inkscape:connector-curvature="0" />
  <path
     class="elementor-shape-fill"
     d="m 2.4637467,4.8874437 c 0.06851,0.033758 4.1383783,-0.1065171 7.7080483,-0.076046 3.377824,0.055143 3.309314,0.021384 3.693013,-0.027959 C 14.056656,4.7587693 12.28898,4.6029783 9.4387123,4.6289796 6.3965963,4.6796535 2.3952365,4.8536865 2.4637467,4.8874437 Z"
     id="path16-8"
     style="fill:#11056c;fill-opacity:1;stroke-width:0.6390093"
     inkscape:connector-curvature="0" />
</svg>
