<?xml version="1.0" encoding="UTF-8" standalone="no"?>
<!-- Created with Inkscape (http://www.inkscape.org/) -->

<svg
   xmlns:osb="http://www.openswatchbook.org/uri/2009/osb"
   xmlns:dc="http://purl.org/dc/elements/1.1/"
   xmlns:cc="http://creativecommons.org/ns#"
   xmlns:rdf="http://www.w3.org/1999/02/22-rdf-syntax-ns#"
   xmlns:svg="http://www.w3.org/2000/svg"
   xmlns="http://www.w3.org/2000/svg"
   xmlns:sodipodi="http://sodipodi.sourceforge.net/DTD/sodipodi-0.dtd"
   xmlns:inkscape="http://www.inkscape.org/namespaces/inkscape"
   width="20"
   height="20"
   viewBox="0 0 5.2916665 5.2916665"
   version="1.1"
   id="svg8"
   inkscape:version="0.92.3 (2405546, 2018-03-11)"
   sodipodi:docname="desk.svg">
  <defs
     id="defs2">
    <linearGradient
       id="linearGradient4564"
       osb:paint="solid">
      <stop
         style="stop-color:#000000;stop-opacity:1;"
         offset="0"
         id="stop4562" />
    </linearGradient>
  </defs>
  <sodipodi:namedview
     id="base"
     pagecolor="#ffffff"
     bordercolor="#666666"
     borderopacity="1.0"
     inkscape:pageopacity="0.0"
     inkscape:pageshadow="2"
     inkscape:zoom="11.2"
     inkscape:cx="11.872456"
     inkscape:cy="5.6992231"
     inkscape:document-units="mm"
     inkscape:current-layer="layer1"
     showgrid="false"
     inkscape:snap-text-baseline="true"
     units="px"
     inkscape:pagecheckerboard="true"
     inkscape:window-width="1366"
     inkscape:window-height="745"
     inkscape:window-x="-8"
     inkscape:window-y="-8"
     inkscape:window-maximized="1" />
  <metadata
     id="metadata5">
    <rdf:RDF>
      <cc:Work
         rdf:about="">
        <dc:format>image/svg+xml</dc:format>
        <dc:type
           rdf:resource="http://purl.org/dc/dcmitype/StillImage" />
        <dc:title></dc:title>
      </cc:Work>
    </rdf:RDF>
  </metadata>
  <g
     inkscape:label="Layer 1"
     inkscape:groupmode="layer"
     id="layer1"
     transform="translate(0,-291.70833)">
    <g
       id="g30"
       transform="matrix(0.17569898,0,0,0.22371317,0.53712738,291.63619)"
       style="fill:#ff6600;fill-opacity:1">
	<rect
   id="rect22"
   height="1.1"
   width="6.4000001"
   y="8.1000004"
   x="13.2"
   style="fill:#ff6600;fill-opacity:1" />

	<path
   id="path24"
   d="m 13.2,15.8 h 6.4 v -3.4 h -6.4 z m 3,-2.2 h 0.6 c 0.3,0 0.5,0.2 0.5,0.5 0,0.3 -0.2,0.5 -0.5,0.5 h -0.6 c -0.3,0 -0.5,-0.2 -0.5,-0.5 0,-0.3 0.2,-0.5 0.5,-0.5 z"
   inkscape:connector-curvature="0"
   style="fill:#ff6600;fill-opacity:1" />

	<rect
   id="rect26"
   height="1.4"
   width="6.4000001"
   y="10.1"
   x="13.2"
   style="fill:#ff6600;fill-opacity:1" />

	<path
   id="path28"
   d="M 20.1,6.1 H 12.8 10.8 3.5 2 V 17.8 H 3 V 7.7 C 3,7.4 3.2,7.2 3.5,7.2 h 7.3 c 0.3,0 0.5,0.2 0.5,0.5 V 17.8 H 21.7 V 6.1 Z m 0.5,10.1 c 0,0.2 -0.2,0.4 -0.4,0.4 h -7.3 c -0.2,0 -0.4,-0.2 -0.4,-0.4 V 7.7 c 0,-0.3 0.2,-0.5 0.4,-0.5 h 7.3 c 0.2,0 0.4,0.2 0.4,0.5 z"
   inkscape:connector-curvature="0"
   style="fill:#ff6600;fill-opacity:1" />

</g>
    <ellipse
       inkscape:export-ydpi="96"
       inkscape:export-xdpi="96"
       inkscape:export-filename="C:\Users\StudyLab360\Desktop\testsss\wardrobe-icon2.png"
       ry="2.5075798"
       rx="2.515676"
       cy="294.35312"
       cx="2.6498089"
       id="ellipse4763"
       style="fill:none;fill-opacity:1;stroke:#ffffff;stroke-width:0.13281925;stroke-miterlimit:4;stroke-dasharray:none;stroke-opacity:1" />
  </g>
</svg>
