<?xml version="1.0" encoding="UTF-8" standalone="no"?>
<!-- Created with Inkscape (http://www.inkscape.org/) -->

<svg
   xmlns:dc="http://purl.org/dc/elements/1.1/"
   xmlns:cc="http://creativecommons.org/ns#"
   xmlns:rdf="http://www.w3.org/1999/02/22-rdf-syntax-ns#"
   xmlns:svg="http://www.w3.org/2000/svg"
   xmlns="http://www.w3.org/2000/svg"
   xmlns:sodipodi="http://sodipodi.sourceforge.net/DTD/sodipodi-0.dtd"
   xmlns:inkscape="http://www.inkscape.org/namespaces/inkscape"
   width="1547.042"
   height="1080"
   viewBox="0 0 409.32152 285.75"
   version="1.1"
   id="svg5459"
   inkscape:version="0.92.3 (2405546, 2018-03-11)"
   sodipodi:docname="drawing1.svg">
  <defs
     id="defs5453" />
  <sodipodi:namedview
     id="base"
     pagecolor="#3934d1"
     bordercolor="#666666"
     borderopacity="1.0"
     inkscape:pageopacity="0.52156863"
     inkscape:pageshadow="2"
     inkscape:zoom="0.35"
     inkscape:cx="612.90437"
     inkscape:cy="644.15186"
     inkscape:document-units="mm"
     inkscape:current-layer="layer1"
     showgrid="false"
     inkscape:window-width="1366"
     inkscape:window-height="745"
     inkscape:window-x="-8"
     inkscape:window-y="-8"
     inkscape:window-maximized="1"
     units="px"
     inkscape:pagecheckerboard="false"
     inkscape:snap-global="false"
     showguides="true"
     inkscape:guide-bbox="true"
     guidecolor="#fbfeff"
     guideopacity="0.49803922">
    <sodipodi:guide
       position="-43.845237,204.8631"
       orientation="0,1"
       id="guide874"
       inkscape:locked="false" />
    <sodipodi:guide
       position="2.2678571,258.53571"
       orientation="0,1"
       id="guide876"
       inkscape:locked="false" />
    <sodipodi:guide
       position="77.863094,350.00595"
       orientation="0,1"
       id="guide878"
       inkscape:locked="false" />
    <sodipodi:guide
       position="58.208332,219.98214"
       orientation="1,0"
       id="guide880"
       inkscape:locked="false" />
    <sodipodi:guide
       position="346.22618,105.07738"
       orientation="1,0"
       id="guide882"
       inkscape:locked="false" />
    <sodipodi:guide
       position="257.77976,29.482143"
       orientation="0,1"
       id="guide884"
       inkscape:locked="false" />
    <sodipodi:guide
       position="162.52976,82.39881"
       orientation="0,1"
       id="guide886"
       inkscape:locked="false" />
  </sodipodi:namedview>
  <metadata
     id="metadata5456">
    <rdf:RDF>
      <cc:Work
         rdf:about="">
        <dc:format>image/svg+xml</dc:format>
        <dc:type
           rdf:resource="http://purl.org/dc/dcmitype/StillImage" />
        <dc:title />
      </cc:Work>
    </rdf:RDF>
  </metadata>
  <g
     inkscape:label="Layer 1"
     inkscape:groupmode="layer"
     id="layer1"
     transform="translate(0,-11.249995)">
    <rect
       style="fill:#221e86;fill-opacity:1;stroke:none;stroke-width:0.97299999;stroke-miterlimit:4;stroke-dasharray:none;stroke-opacity:1"
       id="rect4655"
       width="409.2486"
       height="285.67715"
       x="-154.35347"
       y="-361.70047"
       ry="0" />
    <g
       id="g955"
       transform="translate(10.933049,-0.4982491)">
      <g
         transform="matrix(0.92912176,0,0,0.92912176,2.7932529,24.304488)"
         id="g923">
        <ellipse
           inkscape:export-ydpi="96"
           inkscape:export-xdpi="96"
           inkscape:export-filename="C:\Users\StudyLab360\Desktop\testsss\wardrobe-icon2.png"
           ry="24.249859"
           rx="26.636469"
           cy="241.80244"
           cx="318.02832"
           id="ellipse4751"
           style="fill:none;fill-opacity:1;stroke:#ffffff;stroke-width:1.34399998;stroke-miterlimit:4;stroke-dasharray:none;stroke-opacity:1" />
        <g
           inkscape:export-ydpi="96"
           inkscape:export-xdpi="96"
           inkscape:export-filename="C:\Users\StudyLab360\Desktop\testsss\wardrobe-icon2.png"
           style="fill:#ff6600;fill-opacity:1"
           transform="matrix(2.2069738,0,0,1.9337567,291.76524,218.26075)"
           id="g4761">
          <path
             style="fill:#ff6600;fill-opacity:1"
             inkscape:connector-curvature="0"
             d="m 8.8,15.5 v 0.2 h 6.3 v -0.2 c 0,-1.3 1.1,-2.4 2.4,-2.4 0.1,0 0.2,0 0.3,0 V 5.3 C 17.8,3.6 16.4,2.2 14.7,2.2 H 9.2 C 7.5,2.2 6.1,3.6 6.1,5.3 v 7.8 c 0.1,0 0.2,0 0.3,0 1.3,0 2.4,1.1 2.4,2.4 z M 9.5,6.6 h 5 c 0.3,0 0.5,0.2 0.5,0.5 0,0.2 -0.2,0.4 -0.5,0.4 h -5 C 9.2,7.4 9,7.2 9,7 9,6.8 9.2,6.6 9.5,6.6 Z m 0,3.7 h 5 c 0.3,0 0.5,0.2 0.5,0.4 0,0.2 -0.2,0.5 -0.5,0.5 h -5 C 9.2,11.2 9,11 9,10.7 9,10.5 9.2,10.3 9.5,10.3 Z"
             id="path4753" />
          <rect
             style="fill:#ff6600;fill-opacity:1"
             x="6.8000002"
             y="21"
             width="1.7"
             height="0.60000002"
             id="rect4755" />
          <path
             style="fill:#ff6600;fill-opacity:1"
             inkscape:connector-curvature="0"
             d="m 17.6,14 c -0.8,0 -1.5,0.7 -1.5,1.5 v 0.6 c 0,0.3 -0.2,0.5 -0.5,0.5 H 8.4 C 8.1,16.6 7.9,16.4 7.9,16.1 V 15.5 C 7.9,14.7 7.2,14 6.4,14 5.6,14 4.9,14.7 4.9,15.5 v 3.3 c 0,0.7 0.6,1.3 1.3,1.3 h 0.2 2.6 6 2.6 0.2 c 0.7,0 1.3,-0.6 1.3,-1.3 V 15.5 C 19.1,14.7 18.4,14 17.6,14 Z"
             id="path4757" />
          <rect
             style="fill:#ff6600;fill-opacity:1"
             x="15.4"
             y="21"
             width="1.7"
             height="0.60000002"
             id="rect4759" />
        </g>
      </g>
      <g
         transform="matrix(0.92912176,0,0,0.92912176,1.3885093,-1.6832693)"
         id="g900">
        <g
           style="fill:#ff6600"
           transform="matrix(1.6386432,0,0,1.4817315,185.26321,26.187351)"
           id="g4729">
          <path
             style="fill:#ff6600"
             inkscape:connector-curvature="0"
             d="m 1.7,21.9 v -9.1 c 1.1,0.5 2.2,3.1 2.2,9.1 z m 3.2,0 c 0,-4.3 -0.6,-7.3 -1.6,-8.9 2.5,1 4,4.1 4.1,8.9 z"
             id="path4709" />
          <path
             style="fill:#ff6600"
             inkscape:connector-curvature="0"
             d="M 3.4,7.3 C 4.2,6.1 4.8,4.3 4.9,2.1 H 7.3 C 7.1,4.5 5.5,6.4 3.4,7.3 Z M 1.7,2.1 H 4 C 3.9,5 2.8,7.1 1.7,7.6 Z"
             id="path4711" />
          <path
             style="fill:#ff6600"
             inkscape:connector-curvature="0"
             d="m 2.3,9.9 h 1 C 3.6,9.9 3.8,9.7 3.8,9.4 3.8,9.2 3.6,9 3.3,9 H 2.3 2.2 1.7 v 0.9 h 0.5 z"
             id="path4713" />
          <path
             style="fill:#ff6600"
             inkscape:connector-curvature="0"
             d="m 2.3,11.3 h 1 c 0.3,0 0.5,-0.2 0.5,-0.4 0,-0.3 -0.2,-0.5 -0.5,-0.5 H 2.3 2.2 1.7 v 0.9 h 0.5 z"
             id="path4715" />
          <path
             style="fill:#ff6600"
             inkscape:connector-curvature="0"
             d="M 21.5,2.1 V 7.6 C 20.4,7.1 19.4,5.1 19.3,2.1 Z m -5.6,0 h 2.4 c 0.1,2.1 0.6,4 1.5,5.2 C 17.7,6.4 16.1,4.5 15.9,2.1 Z"
             id="path4717" />
          <path
             style="fill:#ff6600"
             inkscape:connector-curvature="0"
             d="m 20,13.1 c -1,1.6 -1.6,4.6 -1.6,8.9 H 16 c 0,-4.8 1.5,-7.9 4,-8.9 z m 1.5,8.8 h -2.2 c 0.1,-6 1.1,-8.6 2.2,-9.1 z"
             id="path4719" />
          <path
             style="fill:#ff6600"
             inkscape:connector-curvature="0"
             d="m 20.9,9 h -1 c -0.3,0 -0.5,0.2 -0.5,0.4 0,0.3 0.2,0.5 0.5,0.5 h 1 0.4 0.5 V 9 h -0.5 z"
             id="path4721" />
          <path
             style="fill:#ff6600"
             inkscape:connector-curvature="0"
             d="m 20.9,10.4 h -1 c -0.3,0 -0.5,0.2 -0.5,0.5 0,0.2 0.2,0.4 0.5,0.4 h 1 0.4 0.5 v -0.9 h -0.5 z"
             id="path4723" />
          <path
             style="fill:#ff6600"
             inkscape:connector-curvature="0"
             d="m 11.6,11.8 c -0.9,0 -1.6,0.7 -1.6,1.6 0,0.9 0.7,1.6 1.6,1.6 0.9,0 1.6,-0.7 1.6,-1.6 0.1,-0.9 -0.7,-1.6 -1.6,-1.6 z"
             id="path4725" />
          <path
             style="fill:#ff6600"
             inkscape:connector-curvature="0"
             d="M 9.7,2.1 V 3 h 1.4 v 7.5 c 0,0.3 0.2,0.5 0.5,0.5 0.2,0 0.4,-0.2 0.4,-0.5 V 3 h 1.4 V 2.1 Z"
             id="path4727" />
        </g>
        <ellipse
           inkscape:export-ydpi="96"
           inkscape:export-xdpi="96"
           inkscape:export-filename="C:\Users\StudyLab360\Desktop\testsss\wardrobe-icon2.png"
           ry="24.249859"
           rx="26.636469"
           cy="43.83514"
           cx="204.08003"
           id="ellipse4763"
           style="fill:none;fill-opacity:1;stroke:#ffffff;stroke-width:1.34399998;stroke-miterlimit:4;stroke-dasharray:none;stroke-opacity:1" />
      </g>
      <g
         transform="matrix(0.92912176,0,0,0.92912176,2.7932529,24.304488)"
         id="g960">
        <g
           style="fill:#ff6600"
           transform="matrix(1.4386863,0,0,1.6537307,68.224248,47.418673)"
           id="g4689">
          <path
             style="fill:#ff6600"
             inkscape:connector-curvature="0"
             d="M 17.9,6.3 H 13.5 V 18 h 4.4 z m -2,6.3 h -0.2 c -0.2,0 -0.5,-0.2 -0.5,-0.5 0,-0.3 0.2,-0.5 0.5,-0.5 h 0.2 c 0.3,0 0.5,0.2 0.5,0.5 0,0.3 -0.3,0.5 -0.5,0.5 z"
             id="path4677" />
          <path
             style="fill:#ff6600"
             inkscape:connector-curvature="0"
             d="M 10.8,6.3 H 6.5 V 18 h 4.4 V 6.3 Z m -2,6.3 H 8.5 c -0.2,0 -0.4,-0.2 -0.4,-0.5 0,-0.3 0.2,-0.5 0.4,-0.5 h 0.3 c 0.2,0 0.5,0.2 0.5,0.5 0,0.3 -0.3,0.5 -0.5,0.5 z"
             id="path4679" />
          <rect
             style="fill:#ff6600"
             x="17.799999"
             y="20.799999"
             width="1"
             height="0.80000001"
             id="rect4681" />
          <rect
             style="fill:#ff6600"
             x="5.5999999"
             y="20.799999"
             width="0.89999998"
             height="0.80000001"
             id="rect4683" />
          <path
             style="fill:#ff6600"
             inkscape:connector-curvature="0"
             d="M 4.5,19.9 H 5.1 7 17.4 19.3 19.9 V 4.4 H 4.5 Z m 8.2,-14 c 0,-0.3 0.2,-0.5 0.5,-0.5 h 5.3 c 0.3,0 0.5,0.2 0.5,0.5 V 18.5 C 19,18.8 18.8,19 18.5,19 H 13.2 C 13,19 12.7,18.8 12.7,18.5 Z m -7.1,0 C 5.6,5.6 5.8,5.4 6.1,5.4 h 5.3 c 0.2,0 0.5,0.2 0.5,0.5 v 12.6 c 0,0.3 -0.2,0.5 -0.5,0.5 H 6 C 5.7,19 5.5,18.8 5.5,18.5 V 5.9 Z"
             id="path4685" />
          <polygon
             style="fill:#ff6600"
             points="2.4,3.5 4.1,3.5 20.3,3.5 22.1,3.5 22.1,2.3 2.4,2.3 "
             id="polygon4687" />
        </g>
        <ellipse
           inkscape:export-ydpi="96"
           inkscape:export-xdpi="96"
           inkscape:export-filename="C:\Users\StudyLab360\Desktop\testsss\wardrobe-icon2.png"
           ry="24.280327"
           rx="25.16861"
           cy="65.843102"
           cx="85.341667"
           id="ellipse4765"
           style="fill:none;fill-opacity:1;stroke:#ffffff;stroke-width:1.34399998;stroke-miterlimit:4;stroke-dasharray:none;stroke-opacity:1" />
      </g>
      <g
         transform="matrix(0.92912176,0,0,0.92912176,2.7932529,24.304488)"
         id="g950">
        <g
           style="fill:#ff6600;stroke-width:1.18143606;stroke-miterlimit:4;stroke-dasharray:none"
           transform="matrix(1.922919,0,0,1.7129282,12.620331,129.37877)"
           id="g4737">
          <path
             style="fill:#ff6600;stroke-width:1.18143606;stroke-miterlimit:4;stroke-dasharray:none"
             inkscape:connector-curvature="0"
             d="M 17.5,14.6 C 17.4,14.5 17.3,14.4 17.1,14.4 H 6.4 c -0.2,0 -0.3,0.1 -0.4,0.2 0,0.1 0,0.3 0,0.4 l 2.3,7 c 0.1,0.2 0.2,0.3 0.4,0.3 h 6 c 0.2,0 0.4,-0.1 0.4,-0.3 l 2.3,-7 c 0.2,-0.1 0.2,-0.3 0.1,-0.4 z"
             id="path4731" />
          <path
             style="fill:#ff6600;stroke-width:1.18143606;stroke-miterlimit:4;stroke-dasharray:none"
             inkscape:connector-curvature="0"
             d="M 9.9,5.5 C 9.6,5.1 9.4,4.6 9.4,4.1 c 0,-1.3 1.1,-2.4 2.4,-2.4 1.3,0 2.4,1.1 2.4,2.4 0,0.5 -0.2,1 -0.5,1.4 -0.1,0.2 -0.1,0.5 0.1,0.6 0.8,0.7 1.2,1.6 1.2,2.5 0,1.6 -1.2,2.9 -2.8,3.1 V 10.2 L 13,9.4 C 13.2,9.2 13.2,8.9 13,8.8 12.8,8.6 12.5,8.6 12.4,8.8 L 11.8,9.4 11.2,8.8 C 11,8.6 10.7,8.6 10.6,8.8 10.4,9 10.4,9.2 10.6,9.4 l 0.8,0.8 v 1.5 C 9.8,11.5 8.6,10.2 8.6,8.6 8.6,7.6 9,6.8 9.8,6.1 10,6 10,5.7 9.9,5.5 Z"
             id="path4733" />
          <rect
             style="fill:#ff6600;stroke-width:1.18143606;stroke-miterlimit:4;stroke-dasharray:none"
             x="11.3"
             y="12.9"
             width="0.89999998"
             height="1.2"
             id="rect4735" />
        </g>
        <ellipse
           inkscape:export-ydpi="96"
           inkscape:export-xdpi="96"
           inkscape:export-filename="C:\Users\StudyLab360\Desktop\testsss\wardrobe-icon2.png"
           ry="24.249859"
           rx="26.636469"
           cy="150.51701"
           cx="34.721123"
           id="ellipse4767"
           style="fill:none;fill-opacity:1;stroke:#ffffff;stroke-width:1.34399998;stroke-miterlimit:4;stroke-dasharray:none;stroke-opacity:1" />
      </g>
      <g
         transform="matrix(0.92912176,0,0,0.92912176,2.7932529,24.304488)"
         id="g915">
        <g
           style="fill:#ff6600"
           transform="matrix(1.6770735,0,0,1.6557515,356.5158,135.97963)"
           id="g4705">
          <path
             style="fill:#ff6600"
             inkscape:connector-curvature="0"
             d="m 15.5,20.8 c -1.7,0 -3.1,-1.4 -3.1,-3.1 V 5.3 h -0.9 v 12.5 c 0,1.7 -1.4,3.1 -3.1,3.1 -2.1,0 -2.3,-2.1 -2.3,-3.1 H 5.2 c 0,2.5 1.2,4 3.3,4 1.6,0 2.9,-0.9 3.5,-2.2 0.7,1.3 2,2.2 3.5,2.2 2,0 3.3,-1.5 3.3,-4 h -0.9 c -0.1,0.8 -0.3,3 -2.4,3 z"
             id="path4691" />
          <rect
             style="fill:#ff6600"
             x="9.6999998"
             y="3.8"
             width="4.5"
             height="0.89999998"
             id="rect4693" />
          <rect
             style="fill:#ff6600"
             x="8.8000002"
             y="2.4000001"
             width="6.3000002"
             height="0.89999998"
             id="rect4695" />
          <path
             style="fill:#ff6600"
             inkscape:connector-curvature="0"
             d="m 10,17.1 c 0,-2.4 -2,-4.4 -4.4,-4.4 -2.4,0 -4.4,2 -4.4,4.4 0,0.3 0.2,0.5 0.4,0.5 H 9.5 C 9.8,17.5 10,17.3 10,17.1 Z"
             id="path4697" />
          <path
             style="fill:#ff6600"
             inkscape:connector-curvature="0"
             d="m 18.3,12.7 c -2.4,0 -4.4,2 -4.4,4.4 0,0.3 0.2,0.5 0.4,0.5 h 7.9 c 0.2,0 0.5,-0.2 0.5,-0.5 0,-2.5 -2,-4.4 -4.4,-4.4 z"
             id="path4699" />
          <rect
             style="fill:#ff6600"
             x="5.1999998"
             y="10.9"
             width="0.89999998"
             height="1.4"
             id="rect4701" />
          <rect
             style="fill:#ff6600"
             x="17.799999"
             y="10.9"
             width="0.89999998"
             height="1.4"
             id="rect4703" />
        </g>
        <ellipse
           inkscape:export-ydpi="96"
           inkscape:export-xdpi="96"
           inkscape:export-filename="C:\Users\StudyLab360\Desktop\testsss\wardrobe-icon2.png"
           ry="24.249859"
           rx="26.636469"
           cy="155.38496"
           cx="376.27875"
           id="ellipse4769"
           style="fill:none;fill-opacity:1;stroke:#ffffff;stroke-width:1.34399998;stroke-miterlimit:4;stroke-dasharray:none;stroke-opacity:1" />
      </g>
      <g
         transform="matrix(0.92912176,0,0,0.92912176,2.7932529,24.304488)"
         id="g943">
        <g
           inkscape:export-ydpi="96"
           inkscape:export-xdpi="96"
           style="fill:#ff6600"
           transform="matrix(1.9231729,0,0,1.6207146,60.818108,222.32543)"
           id="g4749">
          <g
             style="fill:#ff6600"
             id="g4743">
            <path
               style="fill:#ff6600"
               inkscape:connector-curvature="0"
               d="m 5.6,2.4 v 16.9 c 0,0.4 0.4,0.8 0.8,0.8 h 5.2 V 1.6 H 6.4 C 6,1.6 5.6,2 5.6,2.4 Z m 4,6.8 h 0.9 v 3.3 H 9.6 Z"
               id="path4739" />
            <path
               style="fill:#ff6600"
               inkscape:connector-curvature="0"
               d="m 17.8,1.6 h -5.2 v 18.6 h 5.2 c 0.5,0 0.8,-0.4 0.8,-0.8 V 2.4 C 18.6,2 18.3,1.6 17.8,1.6 Z M 14.6,12.5 H 13.7 V 9.2 h 0.9 z"
               id="path4741" />
          </g>
          <rect
             style="fill:#ff6600"
             x="6.0999999"
             y="21.4"
             width="2"
             height="0.89999998"
             id="rect4745" />
          <rect
             style="fill:#ff6600"
             x="16"
             y="21.4"
             width="2"
             height="0.89999998"
             id="rect4747" />
        </g>
        <ellipse
           inkscape:export-ydpi="96"
           inkscape:export-xdpi="96"
           inkscape:export-filename="C:\Users\StudyLab360\Desktop\testsss\wardrobe-icon2.png"
           ry="24.249859"
           rx="26.636469"
           cy="241.79968"
           cx="84.620033"
           id="ellipse4771"
           style="fill:none;fill-opacity:1;stroke:#ffffff;stroke-width:1.34399998;stroke-miterlimit:4;stroke-dasharray:none;stroke-opacity:1" />
      </g>
      <g
         transform="matrix(0.92912176,0,0,0.92912176,2.7932529,24.304488)"
         id="g934">
        <g
           style="fill:#ff6600"
           transform="matrix(1.908921,0,0,2.120887,180.59044,242.18827)"
           id="g4675">
          <path
             style="fill:#ff6600"
             inkscape:connector-curvature="0"
             d="M 10.6,8.3 H 6.2 v 2.4 h 4.4 V 8.3 Z M 8.5,9.9 H 8.3 C 8,9.9 7.8,9.7 7.8,9.5 7.8,9.2 8,9 8.3,9 H 8.5 C 8.8,9 9,9.2 9,9.5 9,9.7 8.8,9.9 8.5,9.9 Z"
             id="path4661" />
          <rect
             style="fill:#ff6600"
             x="17.6"
             y="18.5"
             width="1"
             height="0.80000001"
             id="rect4663" />
          <path
             style="fill:#ff6600"
             inkscape:connector-curvature="0"
             d="m 17.7,8.3 h -4.4 v 2.4 h 4.4 z M 15.6,9.9 H 15.4 C 15.1,9.9 14.9,9.7 14.9,9.4 15,9.2 15.2,9 15.4,9 h 0.2 c 0.3,0 0.5,0.2 0.5,0.5 0,0.2 -0.2,0.4 -0.5,0.4 z"
             id="path4665" />
          <path
             style="fill:#ff6600"
             inkscape:connector-curvature="0"
             d="M 4.3,17.6 H 4.9 6.8 17.2 19 19.6 V 6.6 H 4.3 Z m 8.1,-9.8 c 0,-0.2 0.2,-0.4 0.4,-0.4 h 5.3 c 0.2,0 0.4,0.2 0.4,0.4 v 3.3 c 0,0.3 -0.2,0.5 -0.4,0.5 h -5.3 c -0.2,0 -0.4,-0.2 -0.4,-0.5 z m -7.1,0 C 5.3,7.6 5.5,7.4 5.7,7.4 H 11 c 0.3,0 0.5,0.2 0.5,0.4 v 3.3 c 0,0.3 -0.2,0.5 -0.5,0.5 H 5.8 C 5.6,11.6 5.4,11.4 5.4,11.1 V 7.8 Z m 0,5.1 c 0,-0.2 0.2,-0.5 0.4,-0.5 h 12.4 c 0.2,0 0.4,0.2 0.4,0.5 v 3.3 c 0,0.3 -0.2,0.5 -0.4,0.5 H 5.8 c -0.2,0 -0.4,-0.2 -0.4,-0.5 v -3.3 z"
             id="path4667" />
          <rect
             style="fill:#ff6600"
             x="5.4000001"
             y="18.5"
             width="1"
             height="0.80000001"
             id="rect4669" />
          <polygon
             style="fill:#ff6600"
             points="2.1,5.8 3.9,5.8 20.1,5.8 21.8,5.8 21.8,4.5 2.1,4.5 "
             id="polygon4671" />
          <path
             style="fill:#ff6600"
             inkscape:connector-curvature="0"
             d="M 17.7,13.4 H 6.2 v 2.4 H 17.7 Z M 12.1,15 h -0.2 c -0.2,0 -0.4,-0.2 -0.4,-0.5 0,-0.3 0.2,-0.5 0.4,-0.5 h 0.2 c 0.3,0 0.5,0.2 0.5,0.5 0,0.3 -0.3,0.5 -0.5,0.5 z"
             id="path4673" />
        </g>
        <ellipse
           style="fill:none;fill-opacity:1;stroke:#ffffff;stroke-width:1.34399998;stroke-miterlimit:4;stroke-dasharray:none;stroke-opacity:1"
           id="ellipse4775"
           cx="203.16345"
           cy="264.6554"
           rx="26.636469"
           ry="24.249859"
           inkscape:export-filename="C:\Users\StudyLab360\Desktop\testsss\wardrobe-icon2.png"
           inkscape:export-xdpi="96"
           inkscape:export-ydpi="96" />
      </g>
      <g
         transform="matrix(0.92912176,0,0,0.92912176,2.7932529,24.304488)"
         id="g904">
        <path
           style="fill:#ff6600;stroke-width:1.92036259"
           inkscape:connector-curvature="0"
           d="m 330.09892,56.618966 c 0.59151,0 1.18307,0.560967 1.18307,1.122031 v 3.179409 6.919883 c 0,0.748061 -0.59151,1.122103 -1.18307,1.122103 H 319.64815 V 56.618966 Z m -24.0564,1.122031 c 0,-0.560991 0.59149,-1.122031 1.18308,-1.122031 h 10.45073 v 12.530472 h -10.25357 c -0.59151,0 -1.1831,-0.561015 -1.1831,-1.122103 v -7.106928 -3.179409 z m -2.95781,20.946596 h -1.77463 l 0.78872,-1.496195 h 2.36625 z m 31.35225,0 -1.57747,-1.496195 h 2.3662 l 0.78877,1.496195 z m 3.74647,-4.114539 c 0,0.561112 -0.59157,1.122151 -1.18315,1.122151 h -1.38019 -5.12682 -23.66209 -5.12675 -1.38027 c -0.59153,0 -1.1831,-0.560991 -1.1831,-1.122151 V 62.977712 c 0,-0.561112 0.59149,-1.122151 1.1831,-1.122151 h 3.94368 v 6.171773 c 0,1.683191 1.38028,2.805295 2.95776,2.805295 h 22.67608 c 1.57752,0 2.95781,-1.309197 2.95781,-2.805295 v -6.171773 h 3.94367 c 0.59152,0 1.18313,0.561039 1.18313,1.122151 v 11.595342 z"
           id="path4707" />
        <ellipse
           inkscape:export-ydpi="96"
           inkscape:export-xdpi="96"
           inkscape:export-filename="C:\Users\StudyLab360\Desktop\testsss\wardrobe-icon2.png"
           ry="24.249859"
           rx="26.636469"
           cy="67.63868"
           cx="318.28165"
           id="ellipse4778"
           style="fill:none;fill-opacity:1;stroke:#ffffff;stroke-width:1.34399998;stroke-miterlimit:4;stroke-dasharray:none;stroke-opacity:1" />
      </g>
    </g>
  </g>
</svg>
