<?xml version="1.0" encoding="UTF-8" standalone="no"?>
<!-- Created with Inkscape (http://www.inkscape.org/) -->

<svg
   xmlns:dc="http://purl.org/dc/elements/1.1/"
   xmlns:cc="http://creativecommons.org/ns#"
   xmlns:rdf="http://www.w3.org/1999/02/22-rdf-syntax-ns#"
   xmlns:svg="http://www.w3.org/2000/svg"
   xmlns="http://www.w3.org/2000/svg"
   xmlns:sodipodi="http://sodipodi.sourceforge.net/DTD/sodipodi-0.dtd"
   xmlns:inkscape="http://www.inkscape.org/namespaces/inkscape"
   width="50"
   height="50"
   viewBox="0 0 13.229167 13.229167"
   version="1.1"
   id="svg867"
   inkscape:version="0.92.3 (2405546, 2018-03-11)"
   sodipodi:docname="handshake-icon.svg">
  <defs
     id="defs861" />
  <sodipodi:namedview
     id="base"
     pagecolor="#ffffff"
     bordercolor="#666666"
     borderopacity="1.0"
     inkscape:pageopacity="0.0"
     inkscape:pageshadow="2"
     inkscape:zoom="3.0565987"
     inkscape:cx="-20.522478"
     inkscape:cy="31.567278"
     inkscape:document-units="mm"
     inkscape:current-layer="layer1"
     showgrid="false"
     units="px"
     inkscape:window-width="1366"
     inkscape:window-height="745"
     inkscape:window-x="-8"
     inkscape:window-y="-8"
     inkscape:window-maximized="1" />
  <metadata
     id="metadata864">
    <rdf:RDF>
      <cc:Work
         rdf:about="">
        <dc:format>image/svg+xml</dc:format>
        <dc:type
           rdf:resource="http://purl.org/dc/dcmitype/StillImage" />
        <dc:title></dc:title>
      </cc:Work>
    </rdf:RDF>
  </metadata>
  <g
     inkscape:label="Layer 1"
     inkscape:groupmode="layer"
     id="layer1"
     transform="translate(0,-283.77082)">
    <path
       style="fill:#db3c00;fill-opacity:1;stroke-width:0.03557009"
       d="m 5.4329933,295.02966 c -0.155251,-0.10871 -0.237535,-0.45489 -0.154287,-0.6491 0.07293,-0.17015 0.963988,-1.26893 1.05694,-1.30333 0.11844,-0.0439 0.31828,0.0362 0.395358,0.15826 0.06714,0.10635 0.100824,0.32657 0.07239,0.47317 -0.02397,0.12359 -0.854223,1.23246 -0.99351,1.32692 -0.108045,0.0733 -0.267373,0.0707 -0.37689,-0.006 z m 1.040696,0.0366 c 0,-0.0147 0.139352,-0.21147 0.30967,-0.4374 0.170319,-0.22592 0.340601,-0.48902 0.378405,-0.58465 0.155047,-0.39222 0.102763,-0.90717 -0.122525,-1.20676 -0.171844,-0.22852 -0.295042,-0.30033 -0.552238,-0.32187 l -0.221515,-0.0185 -0.035,-0.16688 c -0.08896,-0.42429 -0.397067,-0.71972 -0.765983,-0.7345 l -0.214327,-0.009 -0.07862,-0.20361 c -0.123097,-0.3188 -0.364073,-0.52096 -0.675402,-0.56659 l -0.187439,-0.0275 -0.05646,-0.21557 c -0.110815,-0.42314 -0.417999,-0.69469 -0.78443,-0.69342 -0.272486,7.2e-4 -0.435374,0.1261 -0.833845,0.64072 -0.191687,0.24756 -0.365789,0.45011 -0.38689,0.45011 -0.0211,0 -0.259894,-0.21365 -0.530648,-0.4748 -0.270759,-0.26114 -0.699004,-0.66993 -0.95165697,-0.90843 -0.406082,-0.38333 -0.45937,-0.44703 -0.45937,-0.54911 0,-0.0654 0.189402,-0.62496 0.436441,-1.28947 0.240042,-0.64569 0.50433097,-1.37142 0.58730297,-1.61274 0.186653,-0.54287 0.207595,-0.55307 0.544884,-0.2657 0.627872,0.53495 1.074896,0.82724 1.433781,0.93751 0.289322,0.0889 0.798282,0.0333 1.233065,-0.13474 0.543925,-0.21019 1.019005,-0.31993 1.406749,-0.32496 0.206746,-0.003 0.348235,0.0127 0.36954,0.0402 0.02516,0.0325 -0.194034,0.32486 -0.807668,1.07747 -0.497515,0.6102 -0.863495,1.09087 -0.894242,1.17449 -0.02863,0.0779 -0.06069,0.22298 -0.07126,0.32247 -0.03837,0.36123 0.217439,0.85736 0.583302,1.1313 0.165224,0.12372 0.18619,0.12895 0.516632,0.12892 0.31082,-3e-5 0.364276,-0.0113 0.547943,-0.11581 0.265556,-0.15106 0.57459,-0.40934 0.923674,-0.77201 0.154988,-0.16102 0.312575,-0.31351 0.350191,-0.33889 0.112714,-0.076 0.357095,-0.0559 0.479552,0.0396 0.06027,0.047 0.549672,0.65746 1.087552,1.35664 0.87862,1.14207 0.9825297,1.29103 1.0228627,1.46631 0.122615,0.53286 -0.2475047,1.02058 -0.6742417,0.88847 -0.205523,-0.0636 -0.246358,-0.0373 -0.246358,0.15901 0,0.55412 -0.4358,0.8995 -0.817721,0.64804 -0.153341,-0.10096 -0.215542,-0.0577 -0.215542,0.15007 0,0.19886 -0.06821,0.38053 -0.198189,0.5278 -0.136993,0.15524 -0.294232,0.1998 -0.505359,0.14322 -0.184227,-0.0494 -0.221011,-0.0238 -0.249707,0.17362 -0.02505,0.17234 -0.184495,0.41492 -0.321174,0.48862 -0.103797,0.056 -0.35374,0.0757 -0.35374,0.028 z m -1.995882,-0.9288 c -0.193827,-0.12332 -0.277238,-0.42188 -0.182375,-0.65281 0.05357,-0.1304 0.912011,-1.23278 1.009866,-1.29681 0.180058,-0.11784 0.452057,0.0426 0.506908,0.29892 0.05902,0.27588 0.0028,0.39657 -0.474379,1.01885 -0.540458,0.70475 -0.635576,0.77464 -0.86002,0.63185 z m -0.938383,-0.72963 c -0.09615,-0.024 -0.251639,-0.22048 -0.276765,-0.34968 -0.04926,-0.2533 -0.0031,-0.34422 0.51174,-1.00766 0.416892,-0.53723 0.512509,-0.64089 0.610025,-0.66131 0.24034,-0.0503 0.429783,0.17591 0.429783,0.51328 0,0.17035 -0.01036,0.18766 -0.477491,0.79789 -0.417796,0.54578 -0.614748,0.75024 -0.703493,0.7303 -0.01347,-0.003 -0.05567,-0.0133 -0.0938,-0.0228 z m -1.030077,-0.98109 c -0.170385,-0.0888 -0.272401,-0.42897 -0.189659,-0.63233 0.05172,-0.12712 0.834962,-1.17307 0.95942,-1.28121 0.04292,-0.0373 0.138488,-0.0673 0.214479,-0.0673 0.113491,0 0.15495,0.0231 0.241053,0.13421 0.122934,0.15865 0.165654,0.37436 0.103928,0.52476 -0.04757,0.11592 -0.764565,1.08089 -0.929025,1.25034 -0.111647,0.11503 -0.264393,0.14233 -0.400196,0.0715 z m 6.865892,-2.39393 c -1.266595,-1.6458 -1.247728,-1.6277 -1.696077,-1.62723 -0.34964,3.7e-4 -0.39773,0.0305 -1.005555,0.63097 -0.244564,0.24159 -0.510525,0.47569 -0.591029,0.52023 -0.203111,0.11235 -0.609202,0.11384 -0.748507,0.003 -0.175353,-0.13987 -0.324069,-0.48298 -0.288534,-0.6657 0.01847,-0.095 2.038254,-2.52836 2.190339,-2.63885 0.121059,-0.088 0.404839,-0.0609 0.684438,0.0653 0.142904,0.0645 0.407767,0.18459 0.588587,0.26688 0.568922,0.25888 1.14399,0.33459 1.5050707,0.19812 0.273461,-0.10334 0.766798,-0.42944 1.181552,-0.781 0.211895,-0.17961 0.416333,-0.32657 0.454303,-0.32657 0.08753,0 0.102496,0.0323 0.379971,0.82102 0.126529,0.35964 0.37943,1.0512 0.562003,1.53679 0.184525,0.49079 0.33195,0.93415 0.33195,0.9983 0,0.12663 -0.0911,0.22516 -0.87671,0.94819 -0.215262,0.19813 -0.62538,0.59971 -0.911372,0.89241 -0.285994,0.29271 -0.551323,0.54503 -0.589624,0.56072 -0.06053,0.0248 -0.213578,-0.15851 -1.1708057,-1.40232 z"
       id="path841"
       inkscape:connector-curvature="0" />
  </g>
</svg>
