<?xml version="1.0" encoding="UTF-8" standalone="no"?>
<!-- Created with Inkscape (http://www.inkscape.org/) -->

<svg
   xmlns:dc="http://purl.org/dc/elements/1.1/"
   xmlns:cc="http://creativecommons.org/ns#"
   xmlns:rdf="http://www.w3.org/1999/02/22-rdf-syntax-ns#"
   xmlns:svg="http://www.w3.org/2000/svg"
   xmlns="http://www.w3.org/2000/svg"
   xmlns:sodipodi="http://sodipodi.sourceforge.net/DTD/sodipodi-0.dtd"
   xmlns:inkscape="http://www.inkscape.org/namespaces/inkscape"
   width="100"
   height="100"
   viewBox="0 0 26.458333 26.458334"
   version="1.1"
   id="svg1422"
   inkscape:version="0.92.3 (2405546, 2018-03-11)"
   sodipodi:docname="mission-icon.svg">
  <defs
     id="defs1416" />
  <sodipodi:namedview
     id="base"
     pagecolor="#ffffff"
     bordercolor="#666666"
     borderopacity="1.0"
     inkscape:pageopacity="0.0"
     inkscape:pageshadow="2"
     inkscape:zoom="2.8"
     inkscape:cx="37.282156"
     inkscape:cy="84.08815"
     inkscape:document-units="mm"
     inkscape:current-layer="layer1"
     showgrid="false"
     inkscape:window-width="1366"
     inkscape:window-height="745"
     inkscape:window-x="-8"
     inkscape:window-y="-8"
     inkscape:window-maximized="1"
     units="px" />
  <metadata
     id="metadata1419">
    <rdf:RDF>
      <cc:Work
         rdf:about="">
        <dc:format>image/svg+xml</dc:format>
        <dc:type
           rdf:resource="http://purl.org/dc/dcmitype/StillImage" />
        <dc:title></dc:title>
      </cc:Work>
    </rdf:RDF>
  </metadata>
  <g
     inkscape:label="Layer 1"
     inkscape:groupmode="layer"
     id="layer1"
     transform="translate(0,-270.54165)">
    <path
       sodipodi:nodetypes="ccccccccccscsccccsccccssccccccccccccccccccccccccscccscccccccccscccccccscsccssccccccccccc"
       style="fill:#221e86;fill-opacity:1;stroke-width:0.07230872"
       d="M -6.7833334e-7,282.94716 0.11775132,270.61106 l 13.40578968,0.0404 12.934793,-0.10981 v 12.40558 14.05275 H 13.523541 0.11775132 Z M 24.199971,296.02098 c 0.451251,-0.32777 0.422504,0.44678 0.422504,-11.38362 0,-12.19218 0.04898,-11.19668 -0.564447,-11.4709 -0.288512,-0.12897 -0.464788,-0.13893 -2.459471,-0.13893 h -2.148686 l -0.05222,-0.42623 c -0.05908,-0.48226 -0.195278,-0.71662 -0.501383,-0.8628 -0.324034,-0.15473 -11.3337297,-0.15027 -11.6583097,0.005 -0.301326,0.14389 -0.44902,0.4395 -0.44902,0.89868 v 0.38562 l -2.200979,1.2e-4 c -2.458062,1.1e-4 -2.561285,0.0171 -2.895507,0.47919 l -0.170804,0.2361 v 10.83164 c 0,11.76767 -0.0234,11.12252 0.414885,11.44087 l 0.207387,0.15064 H 13.072066 24.000205 Z M 3.4780683,284.63155 v -9.79741 h 1.655434 1.655433 v 0.80603 0.80603 l 0.249088,0.23001 c 0.177625,0.16403 0.344934,0.24279 0.5831655,0.27452 0.183742,0.0245 2.7566622,0.0351 5.7175992,0.0237 4.994096,-0.0194 5.398174,-0.0298 5.586041,-0.14346 0.377969,-0.22875 0.454686,-0.42232 0.491136,-1.23921 l 0.03381,-0.75753 h 1.608142 1.608148 v 9.79741 9.79741 h -9.59399 -9.5939897 z m 8.7380567,4.9591 c 0.209385,-0.0362 0.866209,-0.60626 3.742409,-3.24843 1.918644,-1.76253 3.586307,-3.32655 3.705908,-3.47559 0.245578,-0.30603 0.287931,-0.68925 0.110574,-1.00056 -0.177689,-0.31191 -2.466528,-2.36041 -2.696546,-2.41341 -0.511277,-0.1178 -0.588757,-0.0626 -2.87544,2.04997 l -2.179,2.01304 -1.141277,-1.04022 -1.1412822,-1.04021 h -0.401679 -0.401679 l -1.337952,1.2355 -1.3379535,1.2355 v 0.37769 0.37769 l 2.5772085,2.38942 c 2.2185382,2.05688 2.8256212,2.56626 3.0757202,2.58072 0.02588,0.002 0.161311,-0.017 0.300989,-0.0411 z m -1.927944,-3.70813 -1.7294292,-1.59814 0.393108,-0.363 0.393107,-0.36301 1.1110782,1.01509 c 1.183587,1.08134 1.364464,1.18298 1.844654,1.03664 0.165604,-0.0505 0.939427,-0.71622 2.387825,-2.05432 l 2.142822,-1.97966 0.358957,0.32648 c 0.197424,0.17957 0.358953,0.35909 0.358953,0.39894 0,0.0399 -1.244619,1.22145 -2.765822,2.62578 l -2.765824,2.55334 z M 8.6701088,274.27826 v -0.9033 h 4.4019542 4.401949 v 0.9033 0.90331 H 13.072063 8.6701088 Z"
       id="path831"
       inkscape:connector-curvature="0"
       inkscape:transform-center-x="10.463975"
       inkscape:transform-center-y="4.9198634" />
  </g>
</svg>
