<?xml version="1.0" encoding="UTF-8" standalone="no"?>
<!-- Created with Inkscape (http://www.inkscape.org/) -->

<svg
   xmlns:dc="http://purl.org/dc/elements/1.1/"
   xmlns:cc="http://creativecommons.org/ns#"
   xmlns:rdf="http://www.w3.org/1999/02/22-rdf-syntax-ns#"
   xmlns:svg="http://www.w3.org/2000/svg"
   xmlns="http://www.w3.org/2000/svg"
   xmlns:sodipodi="http://sodipodi.sourceforge.net/DTD/sodipodi-0.dtd"
   xmlns:inkscape="http://www.inkscape.org/namespaces/inkscape"
   width="50"
   height="50"
   viewBox="0 0 13.229167 13.229167"
   version="1.1"
   id="svg867"
   inkscape:version="0.92.3 (2405546, 2018-03-11)"
   sodipodi:docname="moneyvalue-icon.svg">
  <defs
     id="defs861" />
  <sodipodi:namedview
     id="base"
     pagecolor="#ffffff"
     bordercolor="#666666"
     borderopacity="1.0"
     inkscape:pageopacity="0.0"
     inkscape:pageshadow="2"
     inkscape:zoom="7.9195959"
     inkscape:cx="42.841469"
     inkscape:cy="24.125968"
     inkscape:document-units="mm"
     inkscape:current-layer="layer1"
     showgrid="false"
     units="px"
     inkscape:window-width="1366"
     inkscape:window-height="745"
     inkscape:window-x="-8"
     inkscape:window-y="-8"
     inkscape:window-maximized="1" />
  <metadata
     id="metadata864">
    <rdf:RDF>
      <cc:Work
         rdf:about="">
        <dc:format>image/svg+xml</dc:format>
        <dc:type
           rdf:resource="http://purl.org/dc/dcmitype/StillImage" />
        <dc:title></dc:title>
      </cc:Work>
    </rdf:RDF>
  </metadata>
  <g
     inkscape:label="Layer 1"
     inkscape:groupmode="layer"
     id="layer1"
     transform="translate(0,-283.77082)">
    <path
       inkscape:connector-curvature="0"
       id="path897-9"
       d="m 5.6921094,296.81556 c -3.7810184,-0.54949 -6.31897919,-4.36715 -5.35416759,-8.05386 0.66865359,-2.55504 2.73920129,-4.3798 5.43304279,-4.78809 3.3355038,-0.50554 6.5190414,1.75915 7.2299134,5.1432 0.127514,0.60701 0.128082,1.86914 0.001,2.50675 -0.101032,0.50744 -0.348448,1.2521 -0.544479,1.63875 -0.443883,0.87551 -1.329821,1.89341 -2.117145,2.43249 -0.51445,0.35225 -1.3782063,0.76625 -1.9044772,0.91282 -0.8711688,0.24262 -1.9451119,0.32402 -2.7438177,0.20794 z m 2.028949,-0.76477 c 1.7685107,-0.33591 3.3203376,-1.49947 4.1150676,-3.08548 0.457396,-0.9128 0.629491,-1.76128 0.581446,-2.86674 -0.167781,-3.86057 -4.069683,-6.45867 -7.7392167,-5.15318 -1.4927279,0.53106 -2.7198574,1.67128 -3.3360195,3.09975 -0.314726,0.72965 -0.42739598,1.25129 -0.45954498,2.12764 -0.033428,0.91114 0.025679,1.36535 0.27106178,2.08286 0.7186838,2.10147 2.6996481,3.65544 4.9635719,3.89367 0.3256237,0.0343 1.1813245,-0.0183 1.6036339,-0.0985 z m -2.1632704,-1.5132 c 0,-0.0275 0.021734,-0.0635 0.048304,-0.0798 0.081168,-0.0501 0.1261846,-0.54137 0.06078,-0.66333 -0.044933,-0.0838 -0.1146275,-0.11245 -0.2841808,-0.11685 l -0.2246453,-0.006 0.2359795,-0.0462 c 0.2777356,-0.0544 0.3217518,-0.10856 0.3228438,-0.3974 0.00104,-0.2829 -0.085602,-0.3859 -0.3456287,-0.41074 l -0.2131946,-0.0204 0.2276661,-0.009 c 0.184599,-0.007 0.2387901,-0.0333 0.2865109,-0.13785 0.093037,-0.20378 0.012337,-0.48581 -0.1830426,-0.63947 l -0.1712385,-0.1347 0.2670757,-6.4e-4 0.2670759,-6.5e-4 0.3395556,0.42253 c 0.1867566,0.23238 0.3743366,0.43584 0.4168444,0.45212 0.1482285,0.0568 0.8457855,0.0305 0.9106934,-0.0342 0.092754,-0.0926 0.079887,-0.58129 -0.019015,-0.7222 -0.082159,-0.11706 -0.080561,-0.11822 0.1637653,-0.11822 h 0.2467343 l -0.1104644,0.14015 c -0.075903,0.0963 -0.1104673,0.2178 -0.1104673,0.3883 0,0.26762 0.064962,0.37224 0.2371822,0.38197 0.1070443,0.006 0.1070984,0.007 0.00269,0.0323 -0.1939965,0.0476 -0.2398488,0.12788 -0.2398488,0.41999 0,0.27157 0.00865,0.28968 0.1732227,0.36149 0.1703774,0.0743 0.1709081,0.0757 0.032353,0.0799 -0.174992,0.005 -0.2055758,0.0825 -0.2055758,0.51843 0,0.20956 -0.021252,0.33876 -0.053919,0.32789 -0.029655,-0.01 -0.2046132,-0.19736 -0.3887959,-0.41666 L 6.9121646,293.70986 H 6.3815564 5.850948 l -0.016144,0.31091 c -0.011214,0.21593 0.00953,0.34998 0.067855,0.43882 0.083902,0.12779 0.083771,0.12793 -0.130437,0.12793 -0.1179334,0 -0.214422,-0.0225 -0.214422,-0.0501 z m 1.0882688,-0.97742 c 0.089196,-0.0651 0.076437,-0.0934 -0.1808316,-0.40197 -0.2455451,-0.29446 -0.2958543,-0.33009 -0.4455476,-0.3156 -0.1666845,0.0161 -0.1689478,0.0202 -0.185086,0.33399 -0.013044,0.25358 0.00245,0.33137 0.07681,0.38564 0.1218136,0.0889 0.6119056,0.0875 0.7346555,-0.002 z m 0.9266982,-0.29333 c 0.00936,-0.16335 -0.01034,-0.31556 -0.046504,-0.35904 -0.073641,-0.0885 -0.7168051,-0.10694 -0.7694091,-0.022 -0.018204,0.0294 0.080779,0.19814 0.2199788,0.37497 0.22274,0.28293 0.2726827,0.31959 0.4163843,0.30557 0.1573996,-0.0154 0.1638739,-0.0262 0.17955,-0.2995 z m -1.535279,-0.58757 c 0,-0.0257 -0.033843,-0.0747 -0.075204,-0.10896 -0.083521,-0.0692 -0.1689496,0.009 -0.1113403,0.10245 0.040589,0.0655 0.1865442,0.0706 0.1865442,0.006 z m -2.1058404,-1.33838 c -0.6049611,-0.0824 -1.2091087,-0.55949 -1.5285863,-1.20713 -0.1622718,-0.32895 -0.1764396,-0.39834 -0.1764396,-0.8641 0,-0.43921 0.019119,-0.54717 0.144068,-0.81326 0.392218,-0.8353 1.3911695,-1.37175 2.2594136,-1.21334 0.4125667,0.0753 0.886681,0.31271 1.2347981,0.61837 0.4030277,0.35389 0.4252114,0.41376 0.2478856,0.66913 -0.080482,0.1159 -0.1641315,0.2217 -0.185893,0.23513 -0.021757,0.0134 -0.1719396,-0.10458 -0.3337308,-0.26222 -0.3998552,-0.38959 -0.8655104,-0.6179 -1.2602582,-0.6179 -0.5995394,0 -1.0576239,0.26565 -1.3019896,0.75503 -0.3461676,0.69326 -0.037864,1.60497 0.6556883,1.939 0.1057567,0.0509 0.3401946,0.10258 0.5209864,0.11477 0.6795987,0.0458 1.1944021,-0.35388 2.2689191,-1.76156 0.7344829,-0.96222 1.0187425,-1.23409 1.6146808,-1.54427 l 0.4246956,-0.22105 0.026648,-0.45213 c 0.014646,-0.24866 0.044064,-0.45212 0.06534,-0.45212 0.055234,0 1.5329324,1.16278 1.5333124,1.20654 2.29e-4,0.0405 -1.4993267,1.21272 -1.5522714,1.21329 -0.018474,1.6e-4 -0.043941,-0.14275 -0.056619,-0.31766 -0.01267,-0.17492 -0.039846,-0.33479 -0.060374,-0.35528 -0.066561,-0.0664 -0.4111083,0.13731 -0.7136219,0.42197 -0.1624445,0.15286 -0.6092239,0.69432 -0.9928412,1.20324 -0.7044228,0.9345 -0.9999006,1.22845 -1.4777906,1.47013 -0.4118552,0.20827 -0.914538,0.29555 -1.3560203,0.23542 z m 4.4110527,-0.0767 c -0.1538795,-0.0432 -0.3806657,-0.12997 -0.5039622,-0.19275 -0.2763256,-0.14068 -0.8425924,-0.67137 -0.8398673,-0.7871 0.00104,-0.0467 0.083927,-0.18055 0.1840583,-0.29735 l 0.1820542,-0.21236 0.3083748,0.30776 c 0.7005674,0.69914 1.5858108,0.81779 2.2184979,0.29733 0.480376,-0.39517 0.639812,-1.18383 0.345545,-1.70926 l -0.140981,-0.25174 0.219725,-0.1877 c 0.120849,-0.10323 0.24492,-0.17947 0.275712,-0.1694 0.08695,0.0284 0.288377,0.34908 0.353233,0.56234 0.107346,0.35298 0.122292,0.97487 0.03096,1.2884 -0.16961,0.58226 -0.615753,1.05029 -1.222611,1.28259 -0.3664994,0.1403 -1.0401776,0.17336 -1.4107417,0.0692 z"
       style="fill:#db3c00;fill-opacity:1;stroke:none;stroke-width:0.01524974;stroke-miterlimit:4;stroke-dasharray:none;stroke-opacity:1" />
  </g>
</svg>
