<?xml version="1.0" encoding="UTF-8" standalone="no"?>
<!-- Created with Inkscape (http://www.inkscape.org/) -->

<svg
   xmlns:dc="http://purl.org/dc/elements/1.1/"
   xmlns:cc="http://creativecommons.org/ns#"
   xmlns:rdf="http://www.w3.org/1999/02/22-rdf-syntax-ns#"
   xmlns:svg="http://www.w3.org/2000/svg"
   xmlns="http://www.w3.org/2000/svg"
   xmlns:sodipodi="http://sodipodi.sourceforge.net/DTD/sodipodi-0.dtd"
   xmlns:inkscape="http://www.inkscape.org/namespaces/inkscape"
   width="50"
   height="50"
   viewBox="0 0 13.229167 13.229167"
   version="1.1"
   id="svg867"
   inkscape:version="0.92.3 (2405546, 2018-03-11)"
   sodipodi:docname="quality-icon-orange.svg">
  <defs
     id="defs861" />
  <sodipodi:namedview
     id="base"
     pagecolor="#ffffff"
     bordercolor="#666666"
     borderopacity="1.0"
     inkscape:pageopacity="0.0"
     inkscape:pageshadow="2"
     inkscape:zoom="5.6"
     inkscape:cx="18.251264"
     inkscape:cy="44.626306"
     inkscape:document-units="mm"
     inkscape:current-layer="layer1"
     showgrid="false"
     units="px"
     inkscape:window-width="1366"
     inkscape:window-height="745"
     inkscape:window-x="-8"
     inkscape:window-y="-8"
     inkscape:window-maximized="1" />
  <metadata
     id="metadata864">
    <rdf:RDF>
      <cc:Work
         rdf:about="">
        <dc:format>image/svg+xml</dc:format>
        <dc:type
           rdf:resource="http://purl.org/dc/dcmitype/StillImage" />
        <dc:title></dc:title>
      </cc:Work>
    </rdf:RDF>
  </metadata>
  <g
     inkscape:label="Layer 1"
     inkscape:groupmode="layer"
     id="layer1"
     transform="translate(0,-283.77082)">
    <path
       inkscape:connector-curvature="0"
       id="path1019-8"
       d="m 3.849612,296.8292 c -0.092708,-0.0435 -0.1167867,-0.0874 -0.4329054,-0.78838 -0.1545363,-0.34268 -0.3265361,-0.67316 -0.3822394,-0.73438 -0.1232645,-0.13549 -0.4371587,-0.26381 -0.6441445,-0.26332 -0.1819959,4.3e-4 -0.4238111,0.0721 -1.3332712,0.39522 -0.37670229,0.13383 -0.73099206,0.24332 -0.78732248,0.24332 -0.21605091,0 -0.1969017,-0.0556 0.35826857,-1.03923 0.19850885,-0.35175 0.42999471,-0.76185 0.51440231,-0.91135 0.084378,-0.14949 0.2216173,-0.39411 0.3048977,-0.5436 0.0833,-0.14949 0.2161587,-0.38693 0.2952839,-0.52762 0.7560117,-1.34427 0.8986213,-1.596 0.9092248,-1.60488 0.00686,-0.006 0.063406,0.005 0.125891,0.023 0.075166,0.0219 0.1885325,0.11901 0.3345819,0.28643 0.3436175,0.39389 0.6116281,0.58939 1.0358213,0.75558 0.4056908,0.15895 0.7113628,0.21981 0.9519823,0.18957 0.087514,-0.0111 0.3525453,-0.0698 0.5889116,-0.13064 0.2363762,-0.0608 0.4902845,-0.11063 0.564255,-0.11063 0.07399,0 0.3248995,0.0524 0.5576398,0.11647 0.3354346,0.0923 0.4871385,0.1172 0.7317663,0.11992 0.2856016,0.003 0.329682,-0.006 0.5911658,-0.1172 0.4714879,-0.20132 0.7571483,-0.39999 1.0585572,-0.73622 0.2682065,-0.29917 0.2789278,-0.30678 0.5307192,-0.37624 0.1413455,-0.039 0.3599733,-0.11556 0.4858263,-0.17013 0.125861,-0.0546 0.242099,-0.10423 0.258308,-0.11036 0.01617,-0.006 0.112631,0.13768 0.214267,0.31954 0.101636,0.18187 0.253723,0.45299 0.337963,0.60248 0.08428,0.14949 0.290404,0.52361 0.45814,0.8314 0.167738,0.30777 0.36949,0.6747 0.448342,0.8154 0.432591,0.77187 1.101059,1.99866 1.145943,2.10303 0.02851,0.0662 0.04204,0.1418 0.03009,0.16788 -0.04645,0.10146 -0.168384,0.0696 -1.291209,-0.33797 -0.580709,-0.21075 -0.674241,-0.23545 -0.89628,-0.23674 -0.203477,-9.8e-4 -0.27978,0.0143 -0.425751,0.0862 -0.0978,0.0482 -0.212288,0.13455 -0.254398,0.19186 -0.07184,0.0977 -0.252713,0.47241 -0.5393242,1.11702 -0.067816,0.15253 -0.1642773,0.30958 -0.2143162,0.349 -0.089866,0.0708 -0.092022,0.0709 -0.1722253,0.0105 -0.091238,-0.0687 -0.086926,-0.0613 -0.9780209,-1.69202 -0.3555931,-0.65074 -0.7183991,-1.31266 -0.8062365,-1.47094 -0.087808,-0.15829 -0.3014581,-0.54681 -0.4746926,-0.86337 -0.2565054,-0.46873 -0.3305542,-0.57749 -0.3988995,-0.5858 -0.058996,-0.007 -0.09408,0.0118 -0.11809,0.064 -0.018816,0.0407 -0.1660023,0.31158 -0.3271143,0.60178 -0.161122,0.29018 -0.3678335,0.66431 -0.4593655,0.83139 -0.091532,0.16708 -0.375791,0.6851 -0.6316887,1.15116 -0.2558977,0.46606 -0.5461641,0.99848 -0.6450168,1.18314 -0.382739,0.71493 -0.4923031,0.8556 -0.619762,0.79579 z m 0.7397435,-5.25239 c -0.097804,-0.0455 -0.2837591,-0.23186 -0.4884812,-0.48952 -0.255545,-0.32165 -0.6087862,-0.51083 -1.2812526,-0.68619 -0.5102373,-0.13306 -0.5988489,-0.26258 -0.6000837,-0.87715 -9.8e-4,-0.57185 -0.0735,-0.74948 -0.4820427,-1.18276 -0.1942948,-0.20608 -0.2815834,-0.37909 -0.2815834,-0.55809 0,-0.19064 0.048608,-0.2785 0.3450972,-0.62323 0.3835135,-0.44599 0.3923139,-0.46822 0.4171863,-1.05379 0.032144,-0.75705 0.079968,-0.81145 0.9217002,-1.0475 0.2462742,-0.0691 0.5130499,-0.16527 0.5928219,-0.21375 0.079773,-0.0485 0.2622873,-0.22687 0.4055928,-0.39642 0.4564744,-0.54013 0.6242407,-0.61655 1.1087432,-0.50511 0.1624154,0.0374 0.3584155,0.0907 0.4355612,0.11856 0.077126,0.0278 0.2861503,0.0577 0.4644516,0.0663 0.2938531,0.0142 0.3637859,0.005 0.7472798,-0.0967 0.5814636,-0.1545 0.6614708,-0.16423 0.8388803,-0.10209 0.1783993,0.0625 0.3178241,0.16921 0.5024266,0.38461 0.4665391,0.54437 0.5406173,0.59316 1.1532744,0.75931 0.2202551,0.0598 0.4747122,0.14803 0.5654706,0.19621 0.245666,0.13043 0.284298,0.23328 0.313717,0.83518 0.02852,0.58378 0.05714,0.66239 0.366158,1.00727 0.535394,0.59747 0.538961,0.75854 0.0294,1.32615 -0.336473,0.37481 -0.36997,0.46409 -0.396332,1.05611 -0.02313,0.5198 -0.05752,0.64467 -0.2058,0.74786 -0.03136,0.0218 -0.2517622,0.0934 -0.4897161,0.15904 -0.6544149,0.1805 -0.8583628,0.31092 -1.3534297,0.8654 -0.2783298,0.31173 -0.3365125,0.33854 -0.7298357,0.33622 -0.2845137,-0.002 -0.3732038,-0.0167 -0.6339427,-0.10754 -0.4633443,-0.16138 -0.6292583,-0.16215 -1.2348104,-0.006 -0.5379713,0.13893 -0.860803,0.16631 -1.0304509,0.0874 z m 2.2442207,-1.39605 c 0.2397571,-0.0422 0.4848944,-0.1145 0.7246516,-0.21354 0.3098075,-0.12796 0.414844,-0.19395 0.7246515,-0.45525 0.2737239,-0.23086 0.4013298,-0.36816 0.521811,-0.56141 0.9024334,-1.44753 -0.020678,-3.15262 -1.9213595,-3.54895 -0.1299578,-0.0272 -0.4045638,-0.0501 -0.6102266,-0.0511 -2.2233075,-0.0108 -3.6375169,1.9498 -2.5932381,3.59506 0.4487814,0.70704 1.2034308,1.13804 2.2383701,1.2784 0.2356607,0.032 0.5814244,0.0156 0.91534,-0.0432 z M 5.7918455,289.5727 c -0.2860916,-0.0402 -0.7836769,-0.26349 -1.0258939,-0.46019 -0.4527112,-0.36763 -0.6435173,-0.71909 -0.6694971,-1.23318 -0.029008,-0.5731 0.1605829,-0.9813 0.6402244,-1.37873 0.8914771,-0.73865 2.263762,-0.70183 3.1200962,0.0838 0.3454795,0.31694 0.540529,0.74859 0.540529,1.19628 0,0.32235 -0.058114,0.53227 -0.2275562,0.82129 -0.2812992,0.47995 -0.9206712,0.89177 -1.5101708,0.97271 -0.2616013,0.0359 -0.6044741,0.0352 -0.8677316,-0.002 z m 0.1437758,-0.99653 0.3236256,-0.13457 0.3012227,0.13457 c 0.317922,0.14202 0.4886186,0.16892 0.5278676,0.0832 0.012936,-0.0282 9.8e-4,-0.19516 -0.02499,-0.37089 l -0.048608,-0.31949 0.2526734,-0.21349 c 0.2576421,-0.21767 0.3156973,-0.33609 0.2031736,-0.41438 -0.027244,-0.0189 -0.2090635,-0.0523 -0.4040835,-0.074 l -0.354574,-0.0396 -0.1584758,-0.2813 c -0.1578978,-0.28026 -0.2439516,-0.34849 -0.3831704,-0.30369 -0.029302,0.01 -0.1345932,0.14648 -0.2340143,0.30459 l -0.1807709,0.28745 -0.2332794,0.0215 c -0.4758685,0.0439 -0.5934196,0.084 -0.595017,0.20303 -2.352e-4,0.0238 0.1223432,0.14968 0.2725969,0.27959 l 0.2731751,0.2362 -0.04998,0.31659 c -0.02744,0.17412 -0.039396,0.33969 -0.02646,0.36795 0.038416,0.0839 0.1957551,0.0596 0.5391081,-0.0832 z"
       style="fill:#ff6600;fill-opacity:1;stroke-width:0.03492244" />
  </g>
</svg>
