<?xml version="1.0" encoding="UTF-8" standalone="no"?>
<!-- Created with Inkscape (http://www.inkscape.org/) -->

<svg
   xmlns:osb="http://www.openswatchbook.org/uri/2009/osb"
   xmlns:dc="http://purl.org/dc/elements/1.1/"
   xmlns:cc="http://creativecommons.org/ns#"
   xmlns:rdf="http://www.w3.org/1999/02/22-rdf-syntax-ns#"
   xmlns:svg="http://www.w3.org/2000/svg"
   xmlns="http://www.w3.org/2000/svg"
   xmlns:sodipodi="http://sodipodi.sourceforge.net/DTD/sodipodi-0.dtd"
   xmlns:inkscape="http://www.inkscape.org/namespaces/inkscape"
   width="21"
   height="21"
   viewBox="0 0 5.5562499 5.5562502"
   version="1.1"
   id="svg8"
   inkscape:version="0.92.3 (2405546, 2018-03-11)"
   sodipodi:docname="television.svg">
  <defs
     id="defs2">
    <linearGradient
       osb:paint="solid"
       id="linearGradient4564">
      <stop
         id="stop4562"
         offset="0"
         style="stop-color:#000000;stop-opacity:1;" />
    </linearGradient>
  </defs>
  <sodipodi:namedview
     id="base"
     pagecolor="#ffffff"
     bordercolor="#666666"
     borderopacity="1.0"
     inkscape:pageopacity="0.0"
     inkscape:pageshadow="2"
     inkscape:zoom="5.6"
     inkscape:cx="32.046581"
     inkscape:cy="19.715559"
     inkscape:document-units="mm"
     inkscape:current-layer="layer1"
     showgrid="false"
     inkscape:pagecheckerboard="true"
     units="px"
     inkscape:window-width="1366"
     inkscape:window-height="745"
     inkscape:window-x="-8"
     inkscape:window-y="-8"
     inkscape:window-maximized="1" />
  <metadata
     id="metadata5">
    <rdf:RDF>
      <cc:Work
         rdf:about="">
        <dc:format>image/svg+xml</dc:format>
        <dc:type
           rdf:resource="http://purl.org/dc/dcmitype/StillImage" />
        <dc:title></dc:title>
      </cc:Work>
    </rdf:RDF>
  </metadata>
  <g
     inkscape:label="Layer 1"
     inkscape:groupmode="layer"
     id="layer1"
     transform="translate(0,-291.44373)">
    <g
       id="g833"
       transform="matrix(0.13108444,0,0,0.16856837,1.1761419,292.26483)"
       style="fill:#ff6600;fill-opacity:1">
	<g
   id="g823"
   style="fill:#ff6600;fill-opacity:1">
		<path
   id="path815"
   d="M 22.1,15 H 1.4 c -0.3,0 -0.5,0.2 -0.5,0.4 v 6.7 c 0,0.2 0.2,0.4 0.5,0.4 h 3.3 c 0.2,0 0.3,-0.1 0.4,-0.3 l 0.8,-2 h 11.8 l 0.8,2 c 0.1,0.2 0.2,0.3 0.4,0.3 h 3.3 c 0.3,0 0.5,-0.2 0.5,-0.4 V 15.4 C 22.6,15.2 22.4,15 22.1,15 Z m -9.9,3.1 h -1 c -0.2,0 -0.4,-0.2 -0.4,-0.4 0,-0.3 0.2,-0.5 0.4,-0.5 h 1 c 0.2,0 0.4,0.2 0.4,0.5 0.1,0.2 -0.1,0.4 -0.4,0.4 z"
   inkscape:connector-curvature="0"
   style="fill:#ff6600;fill-opacity:1" />

		<g
   id="g821"
   style="fill:#ff6600;fill-opacity:1">
			<g
   id="g819"
   style="fill:#ff6600;fill-opacity:1">
				<path
   id="path817"
   d="M 20.8,12.3 H 2.6 C 2.3,12.3 2.1,12.1 2.1,11.8 V 1.6 C 2.1,1.3 2.3,1.1 2.6,1.1 h 18.2 c 0.3,0 0.5,0.2 0.5,0.5 v 10.3 c 0,0.2 -0.2,0.4 -0.5,0.4 z"
   inkscape:connector-curvature="0"
   style="fill:#ff6600;fill-opacity:1" />

			</g>

		</g>

	</g>

	<g
   id="g827"
   style="fill:#ff6600;fill-opacity:1">
		<rect
   id="rect825"
   height="2"
   width="0.89999998"
   y="12.4"
   x="11.3"
   style="fill:#ff6600;fill-opacity:1" />

	</g>

	<g
   id="g831"
   style="fill:#ff6600;fill-opacity:1">
		<rect
   id="rect829"
   height="0.89999998"
   width="7.3000002"
   y="13.5"
   x="8.1000004"
   style="fill:#ff6600;fill-opacity:1" />

	</g>

</g>
    <ellipse
       inkscape:export-ydpi="96"
       inkscape:export-xdpi="96"
       inkscape:export-filename="C:\Users\StudyLab360\Desktop\testsss\wardrobe-icon2.png"
       ry="2.5683901"
       rx="2.5766959"
       cy="294.23883"
       cx="2.7806354"
       id="ellipse4763-1"
       style="fill:none;fill-opacity:1;stroke:#ffffff;stroke-width:0.13604055;stroke-miterlimit:4;stroke-dasharray:none;stroke-opacity:1" />
  </g>
</svg>
