<?xml version="1.0" encoding="UTF-8" standalone="no"?>
<!-- Created with Inkscape (http://www.inkscape.org/) -->

<svg
   xmlns:dc="http://purl.org/dc/elements/1.1/"
   xmlns:cc="http://creativecommons.org/ns#"
   xmlns:rdf="http://www.w3.org/1999/02/22-rdf-syntax-ns#"
   xmlns:svg="http://www.w3.org/2000/svg"
   xmlns="http://www.w3.org/2000/svg"
   xmlns:sodipodi="http://sodipodi.sourceforge.net/DTD/sodipodi-0.dtd"
   xmlns:inkscape="http://www.inkscape.org/namespaces/inkscape"
   width="50"
   height="50"
   viewBox="0 0 13.229167 13.229167"
   version="1.1"
   id="svg867"
   inkscape:version="0.92.3 (2405546, 2018-03-11)"
   sodipodi:docname="time-icon.svg">
  <defs
     id="defs861" />
  <sodipodi:namedview
     id="base"
     pagecolor="#ffffff"
     bordercolor="#666666"
     borderopacity="1.0"
     inkscape:pageopacity="0.0"
     inkscape:pageshadow="2"
     inkscape:zoom="3.959798"
     inkscape:cx="83.805178"
     inkscape:cy="26.933535"
     inkscape:document-units="mm"
     inkscape:current-layer="layer1"
     showgrid="false"
     units="px"
     inkscape:window-width="1366"
     inkscape:window-height="745"
     inkscape:window-x="-8"
     inkscape:window-y="-8"
     inkscape:window-maximized="1" />
  <metadata
     id="metadata864">
    <rdf:RDF>
      <cc:Work
         rdf:about="">
        <dc:format>image/svg+xml</dc:format>
        <dc:type
           rdf:resource="http://purl.org/dc/dcmitype/StillImage" />
        <dc:title></dc:title>
      </cc:Work>
    </rdf:RDF>
  </metadata>
  <g
     inkscape:label="Layer 1"
     inkscape:groupmode="layer"
     id="layer1"
     transform="translate(0,-283.77082)">
    <path
       inkscape:connector-curvature="0"
       id="path957-9"
       d="m 6.0005549,296.84794 c -1.984488,-0.21426 -3.755927,-1.29302 -4.813887,-2.93155 -0.59816097,-0.92641 -0.92654297,-1.88626 -1.02808897,-3.00507 -0.05182,-0.57092 -0.03455,-0.69292 0.120043,-0.84796 0.205736,-0.20635 0.588774,-0.14264 0.72964497,0.12136 0.023,0.0431 0.04985,0.2629 0.05969,0.48847 0.04337,0.99455 0.357298,1.94579 0.930401,2.8192 0.295765,0.45073 1.037667,1.19367 1.501796,1.50388 0.630139,0.42116 1.26502,0.68623 2.039221,0.85139 0.54574,0.11642 1.494487,0.12569 2.056102,0.0201 1.11213,-0.20911 2.050416,-0.69151 2.8565141,-1.4686 0.871576,-0.84022 1.37355,-1.75199 1.623938,-2.94966 0.120505,-0.57639 0.120505,-1.5436 0,-2.11999 -0.243499,-1.16473 -0.693817,-2.00589 -1.519041,-2.83743 -1.0199941,-1.0278 -2.2047941,-1.56485 -3.6531841,-1.65591 -0.472708,-0.0297 -0.604195,-0.0779 -0.695345,-0.25466 -0.12075,-0.2342 -0.02271,-0.50581 0.229832,-0.63679 0.234518,-0.12164 1.431617,0.0375 2.209772,0.29381 3.1219161,1.02817 4.9981791,4.2996 4.3053621,7.50679 -0.551445,2.55274 -2.623004,4.55907 -5.1850151,5.02176 -0.489788,0.0885 -1.338085,0.12727 -1.767751,0.0809 z m -1.809664,-4.98525 c -0.07152,-0.0483 -0.152576,-0.13073 -0.180133,-0.18309 -0.06959,-0.13222 -0.03285,-0.37257 0.07466,-0.48854 0.04929,-0.0532 0.534951,-0.32038 1.079241,-0.59381 l 0.989624,-0.49713 1.71e-4,-1.82112 c 1.7e-4,-1.73823 0.0036,-1.82675 0.07516,-1.94453 0.0833,-0.13704 0.256435,-0.24278 0.397489,-0.24278 0.118966,0 0.338715,0.14872 0.400391,0.27097 0.03659,0.0725 0.04814,0.57727 0.04846,2.11884 4.52e-4,1.94209 -0.0026,2.02862 -0.07487,2.14748 -0.06292,0.1035 -0.271335,0.22218 -1.269145,0.72272 -0.695576,0.34892 -1.239175,0.59888 -1.302431,0.59888 -0.05972,0 -0.167086,-0.0396 -0.238602,-0.0879 z m -3.25531197,-3.34488 c -0.162159,-0.0349 -0.26315,-0.12779 -0.317067,-0.29165 -0.06044,-0.18367 -0.01462,-0.33914 0.140126,-0.47541 0.31811297,-0.28013 0.78962797,-0.0255 0.73326297,0.39599 -0.03546,0.26515 -0.282586,0.42998 -0.55632197,0.37107 z m 1.18335497,-2.0097 c -0.389789,-0.26457 -0.213096,-0.82114 0.260674,-0.82114 0.144896,0 0.186066,0.0198 0.299544,0.14397 0.181368,0.1985 0.183604,0.39765 0.0066,0.59133 -0.168469,0.18438 -0.375491,0.21573 -0.566844,0.0858 z m 1.897121,-1.35329 c -0.13449,-0.12362 -0.148471,-0.15467 -0.148471,-0.32963 0,-0.161 0.0187,-0.21275 0.112419,-0.31084 0.142767,-0.14946 0.332068,-0.18865 0.507029,-0.10497 0.429513,0.20542 0.32511,0.80869 -0.149238,0.86232 -0.157528,0.0178 -0.186745,0.007 -0.321739,-0.11688 z"
       style="fill:#db3c00;fill-opacity:1;stroke-width:0.03848853" />
  </g>
</svg>
