<?xml version="1.0" encoding="UTF-8" standalone="no"?>
<!-- Created with Inkscape (http://www.inkscape.org/) -->

<svg
   xmlns:dc="http://purl.org/dc/elements/1.1/"
   xmlns:cc="http://creativecommons.org/ns#"
   xmlns:rdf="http://www.w3.org/1999/02/22-rdf-syntax-ns#"
   xmlns:svg="http://www.w3.org/2000/svg"
   xmlns="http://www.w3.org/2000/svg"
   xmlns:sodipodi="http://sodipodi.sourceforge.net/DTD/sodipodi-0.dtd"
   xmlns:inkscape="http://www.inkscape.org/namespaces/inkscape"
   width="100"
   height="100"
   viewBox="0 0 26.458333 26.458334"
   version="1.1"
   id="svg847"
   inkscape:version="0.92.3 (2405546, 2018-03-11)"
   sodipodi:docname="vision-icon.svg">
  <defs
     id="defs841" />
  <sodipodi:namedview
     id="base"
     pagecolor="#ffffff"
     bordercolor="#666666"
     borderopacity="1.0"
     inkscape:pageopacity="0.0"
     inkscape:pageshadow="2"
     inkscape:zoom="2.8"
     inkscape:cx="140.43588"
     inkscape:cy="21.28226"
     inkscape:document-units="mm"
     inkscape:current-layer="layer1"
     showgrid="false"
     inkscape:window-width="1366"
     inkscape:window-height="745"
     inkscape:window-x="-8"
     inkscape:window-y="-8"
     inkscape:window-maximized="1"
     units="px" />
  <metadata
     id="metadata844">
    <rdf:RDF>
      <cc:Work
         rdf:about="">
        <dc:format>image/svg+xml</dc:format>
        <dc:type
           rdf:resource="http://purl.org/dc/dcmitype/StillImage" />
        <dc:title></dc:title>
      </cc:Work>
    </rdf:RDF>
  </metadata>
  <g
     inkscape:label="Layer 1"
     inkscape:groupmode="layer"
     id="layer1"
     transform="translate(0,-270.54165)">
    <path
       inkscape:connector-curvature="0"
       id="path832"
       d="M 2.1822801,297.07438 C 1.559915,296.9277 1.091465,296.49918 0.79950306,295.80944 l -0.193569,-0.45723 v -2.48832 -2.48833 l 0.230366,-0.46357 c 0.27827294,-0.56001 0.79726394,-1.08447 1.38612504,-1.40077 0.817516,-0.4391 6.9126312,-2.69338 7.0027102,-2.58994 0.0302,0.0347 0.195278,0.65592 0.366787,1.38047 0.5856647,2.47413 1.9060457,6.87949 2.0619247,6.87949 0.09101,0 0.24571,-0.96839 0.385832,-2.41515 0.127409,-1.31552 0.219071,-1.97442 0.287583,-2.0675 0.07719,-0.10487 1.968545,-0.1316 2.115436,-0.0299 0.05325,0.0369 0.123073,0.42657 0.184355,1.02912 0.12824,1.26058 0.420821,3.45658 0.467304,3.50729 0.02002,0.0218 0.06237,0.009 0.09425,-0.0287 0.127197,-0.14983 1.367232,-4.35926 1.837338,-6.237 0.274986,-1.0984 0.516686,-2.01533 0.537121,-2.03763 0.06692,-0.0729 6.438709,2.30661 7.00613,2.6164 0.68907,0.37619 1.229506,0.92664 1.478067,1.50546 l 0.182571,0.42516 v 2.45173 c 0,2.38682 -0.0036,2.46273 -0.15384,2.86701 -0.185496,0.50071 -0.58566,0.9699 -1.009549,1.18367 l -0.31233,0.15752 -11.168528,0.0106 c -6.1427029,0.006 -11.2741829,-0.0144 -11.4033089,-0.0448 z m 10.0079039,-8.29151 c -0.108874,-0.14313 -0.549862,-1.17215 -0.549862,-1.28306 0,-0.15618 0.337274,-0.74291 0.472399,-0.82182 0.155709,-0.0909 2.381779,-0.0943 2.5367,-0.004 0.06373,0.0372 0.186065,0.23108 0.271789,0.43078 l 0.155868,0.36308 -0.305488,0.70362 -0.305481,0.7036 h -1.102836 c -0.806119,0 -1.121741,-0.0249 -1.173089,-0.0924 z m -7.9739399,-5.25238 c -1.757663,-0.34559 -3.32503704,-1.86441 -3.88732104,-3.76691 -0.22594997,-0.76448 -0.28579997,-1.95666 -0.136617,-2.72092 0.224379,-1.14937 0.653625,-2.00408 1.43454394,-2.85642 0.494506,-0.53972 0.6432761,-0.65121 1.4422031,-1.08085 0.695552,-0.37405 1.011726,-0.59555 1.442567,-1.0106 0.968701,-0.93321 1.794616,-1.37996 2.640414,-1.42824 0.8249932,-0.0471 1.2358982,0.25408 1.8903292,1.38553 0.131098,0.22668 0.308126,0.46545 0.393377,0.5306 0.345141,0.26376 1.0918277,0.0608 2.4545127,-0.66719 l 0.78978,-0.42193 h 0.704304 0.704329 l 1.03971,0.56081 c 1.754143,0.94615 2.0965,0.93509 2.633214,-0.0851 0.229346,-0.43594 0.662182,-0.91587 0.991118,-1.09896 0.421081,-0.23438 0.776975,-0.25508 1.364029,-0.0794 0.885525,0.26506 1.554572,0.70981 2.392399,1.59034 0.200896,0.21115 0.48988,0.40375 0.852185,0.56797 2.19891,0.99672 3.42972,3.21212 3.174093,5.71323 -0.226567,2.21697 -1.551247,3.983 -3.525335,4.69991 -0.473285,0.17187 -0.643515,0.19512 -1.442187,0.19689 -0.806203,0.002 -0.965011,-0.0196 -1.447436,-0.19449 -0.904926,-0.32814 -1.732795,-0.97925 -2.383556,-1.87463 -0.567991,-0.7815 -0.768844,-1.00005 -1.052588,-1.14537 -0.717963,-0.36773 -1.026773,-0.7601 -1.263858,-1.60582 -0.09112,-0.32504 -0.204182,-0.5283 -0.435202,-0.78244 -0.430598,-0.47365 -0.830125,-0.59596 -1.826592,-0.55923 -0.673432,0.0249 -0.781937,0.0485 -1.102502,0.24084 -0.44524,0.26711 -0.697985,0.63711 -0.847878,1.24127 -0.137787,0.5554 -0.438804,0.97789 -0.898395,1.2609 -0.6660567,0.41016 -0.8207837,0.55282 -1.1894997,1.09681 -1.053194,1.5538 -2.2344762,2.27588 -3.8189732,2.3344 -0.405816,0.015 -0.894142,-0.003 -1.085168,-0.041 z m 2.06686,-1.23983 c 1.217716,-0.41256 2.2530112,-1.52304 2.6260882,-2.81678 0.222613,-0.77197 0.204824,-1.91743 -0.04185,-2.69832 -0.41486,-1.31311 -1.306448,-2.30153 -2.4971922,-2.76845 -0.489764,-0.19204 -1.642201,-0.26653 -2.180309,-0.14092 -1.418252,0.33104 -2.6729771,1.74734 -2.9877381,3.37247 -0.61946494,3.19839 2.2197681,6.0214 5.0810181,5.052 z m 16.5592749,-0.0713 c 1.140826,-0.42713 2.018963,-1.35783 2.455098,-2.6021 0.217192,-0.6196 0.29713,-1.84433 0.164177,-2.5151 -0.32472,-1.63825 -1.58412,-3.0054 -3.076433,-3.33965 -0.614159,-0.13756 -0.872266,-0.13775 -1.53252,-0.001 -0.813434,0.16835 -1.432595,0.53773 -2.075666,1.23827 -0.666974,0.72658 -0.973722,1.36269 -1.130658,2.34458 -0.109875,0.68737 -0.09326,1.08269 0.07709,1.83388 0.33366,1.47188 1.537487,2.77266 2.919948,3.15513 0.53345,0.14758 1.655901,0.0894 2.199032,-0.11391 z m -8.677942,-6.0103 c 0.313784,-0.14563 0.703334,-0.54152 0.878342,-0.89264 0.08619,-0.17282 0.118137,-0.40457 0.118567,-0.85878 4.82e-4,-0.54292 -0.02208,-0.66398 -0.177901,-0.95142 -0.393711,-0.72648 -0.956989,-1.07018 -1.639878,-1.00061 -0.230316,0.0235 -0.521302,0.0894 -0.646643,0.14656 -1.298563,0.59198 -1.433227,2.6791 -0.22279,3.45306 0.526027,0.33633 1.111825,0.37232 1.690303,0.10383 z"
       style="fill:#221e86;fill-opacity:1;stroke-width:0.07006564" />
  </g>
</svg>
